<mxfile host="app.diagrams.net" modified="2022-12-11T06:15:59.131Z" agent="5.0 (Windows NT 10.0; Win64; x64) AppleWebKit/537.36 (KHTML, like Gecko) Chrome/107.0.0.0 Safari/537.36" version="20.6.0" etag="5bkmWVr-kOXFFASHj03s" type="github">
  <diagram id="NQIgaABCxpMK61Tc05E4" name="第 1 页">
    <mxGraphModel dx="2532" dy="-1401" grid="0" gridSize="10" guides="1" tooltips="1" connect="1" arrows="1" fold="1" page="0" pageScale="1" pageWidth="827" pageHeight="1169" math="0" shadow="0">
      <root>
        <mxCell id="0" />
        <mxCell id="1" parent="0" />
        <mxCell id="GHWXiHdl8ZBUF20P6Pi2-1" value="" style="shape=image;verticalLabelPosition=bottom;labelBackgroundColor=default;verticalAlign=top;aspect=fixed;imageAspect=0;image=data:image/png,iVBORw0KGgoAAAANSUhEUgAAAvkAAAFNCAYAAACaD3CGAAAgAElEQVR4nOzd6XNc15nn+e859+YGIBP7vgMEQAIkwX2nRGq35b3stl3u6q6pmqk3MxEz/0bHvJiYnuiOiaiu6o6Y6tq6bJdsy7IlS5REiaRIcQUXcAEIAiD2HZlIZOa958yLBEBSi21KpACCzyeCIIBMZB4k8t77u+ee8xxlrbUIIYQQQggh1g292g0QQgghhBBCPFoS8oUQQgghhFhnJOQLIYQQQgixzkjIF0IIIYQQYp2RkC+EEEIIIcQ6497/RTq9sFrtEEIIIYQQQnwJwWDOyufSky+EEEIIIcQ6IyFfCCGEEEKIdUZCvhBCCCGEEOuMhHwhhBBCCCHWGfcP3+XTlFKPuh1fOWvtajdBPAHWw3v9q2atxVorr50Qa1h285Rt9GFl92/Lr58Qa9tDh/zpmTmmZ+cxxjyZ+wcLjnYoLsonFs1d7daINUgpRTK5yNjkDOl0+sl8n6+GpfPmaF4OJUUFOI6zuu0RQnymheQi4xNTpD1fwuofaynY50ejFBfmS8oXT4SHDPmKjy9e4zfvnCCeWHgie8OVUhTE8vj2145wcE8nT+CvIB4zR2uGRsf5x5+/yZ3BYcDK++SPoADXddi1vYPvf/MF8qN52c4AIcSa0j84wn//6RuMjk+iUFhkB/eHKK0IuC5HD+7iGy8dJhQMrnaThPiDHi7kKxi4O8LJs5fIj+ZRXlqE1k/GsH6FwvN9hkbGSKfT7NmxWXZu4rMpzdx8gjMXLzM8OklLYx2BoIu8VX6/+XiCvv675OZGyGQ8tAKJ+EKsHUoprLXMzM5x+vxl5hNJmuurCQYDT2Sn3VdFa83oyATDI+PUVpVjfHmtxJPhoYfraK2I5eby6ouHefGZvYSC7hPRy6m1IpFc5Be/eY/3Tp5Day2ZTXwupTWu49LR1sT/9pc/oig/Jr3Sv4dSimu3+vhPf/NPOI6DQs6JhFirlFJEwiFam+r4y598h6KCGL4v+7fPEwoGefO9U/z9z97IDkOUkTriCfHwE29t9rJVWXEhzQ01RMJBzBOQ8rXWxOMLFBXmo5V6Ik5MxOqyFnJzcmiqq6a4qBBr/dVu0pqkUCilSCwkCQS+0Fx+IcRXKHv4U0SjuTTV11BcVIgx3iq3aq1SOE6QitIbMs9IPHG+8BHZGIMxPp5vnojLfNaCbwzWWLBWTsTFH8Vag+dn3+vSk//5lFL4xiD990I8OYyx+J6PNb705P8ejmOW9m9CPFm+8IB6ixzOhRD3yP5ACCGEWDu+1KxZ6Q0XQgghhBBi7XkySuMIIYQQQggh/mgS8oUQQgghhFhnJOQLIYQQQgixzkjIF0IIIYQQYp2RkC+EEEIIIcQ685WtXGMAkzFoLDqosVahrMUqhe95aK1QSi8tuw2+NVjfw3VdUBqtQCmNMZaM7+N7HkFX47gOSjuYpfr3Qqwm3zegwNUKaxUosNZiUSymM4Qci3YCKJWtTWWtxbdgMQS1BhRaa5S+v3bV8ud26Wey61QolV3kDbJL1VtrUVjU0vfuFbXM3u4bA9ZiLShl8YzCT6UIhgMr2949VjYnIcRnMtaS8bLH6FDIxbeaTCZD0OGB/dsyC2gFi2kfbTwCoSAKBerevu2T+xtHq/v2Zdl1bhzFfT+zbGn/5pulx7EopUh7BvwMgWAApfXSo3z+8wmxHj32kJ/dJhWeVty4NopemKK1sw4nkIfWcDfuMdLVRUtLOXnFlYDCKsXIvMdI92U2NRSTV9ZAMuWTSi1QlOPSPWUYuHKWHRtKyavcQGp+jpzcAG4giBT2FKtFKcWNu3P4iQk2NZfhhvJXDjgzacOxU1fYX+FTuXFX9gesxaC5MTLL0GAfRzaVQW4F0zNzZJJJ0PdC+j0W19EU5+cQz7gk4nEwPq6jyMsJkjIBkgsLZE+r7/18RGvyC6NoN4ACFn3FmVujBPqvsutwJ264KHuijP3UAVoIIZZpBSlfceL6GPbuLY4+28adZAHXL1xka3WQ2tZ2LEFWOiXI5vKZjOHEiRtszJ+lcesOjA6CWVqY8r5djrUWg2JqNsliMrGyf4vm5bCQgtRiEtS9hamUhdxggLxYHtoNoJVi3lOcPneLEjNF+/YO3EgU4wOYB/ZvFkkMYn17rCHfWEva87G+TwbN5bEpBi6eIBSaoaZ1G7O+wy9/dwV79T3KS59D5xQCipxwkFDIoat/ATvRx/6vl3NtLEP3pXP8YF81o4s1XLzSTXuZYTS6gUs/P8aRZ2upaNqy9CvJKbpYBVrRP53k6omLhJKltHTuBicCQNwznOzqpc1kqNq0Z2mVaItVMDy1wGu/u4Q/EWDrjn18dG2Gwd5buI5PGs3I3SlioQz5RYVYHaA4GuQbRzbx62tw48xxciMhMskk+9tL6EmVcqeri6qqfIwOorGMz3vUJGf43p89R3F1K75yOXVtjL/9u9fYGxmC/Bysk4uyBq0VxiqM79NUGaWyqhrrhuUqmRBPMQs4y1cOLaSNoevOFObSZY4eKGckkcuZyzepVDnUtbZlO9uVxlqLo2EmZfmHEz18/E+/5BsHixm3EYzJjhbWWpExkKc9muvKyS+tZDpt+cfj3SR6z6ICIWZHJnn15Q6OdWucqetEC4tAaQyKudkkTWGfb3z3EAXVrSxkFL/rGuRXP32N/TWapHawbgRrDI5W+FZh/Awb64oorazDWIn5Yv16bCFfK1hIW871jDI/0o+rFAvxNGMpePd0N3UTGe4kFBdPdtFWojl7cxTn9jxaa7a1luEFSsgtKeGdizdp6L3EeLyKm4Nj9PcZJk2IeHyB4YlZ7voj9PfcIb27IDtA4f5RCkJ8hZS17G2vYHSijRNnT1GQn0dZ83as0igUgYCL48L960UHsOxvLSPx4jPc6j5Nx3Q/L+3dRWbXBhwsE77m5//4Idsrpuk8eAAVKsDVEMgJMbNwjW01mpY9z/Lrt64wNDjIdNBlY0WY73znGfxgCQFH8csrk0y9+zOMn2HBs3QNjvHG68cYvtVNX7VDoOsGgdwCFJa5tOFyz13UxAB/+d1dVFWVYokgG5UQTzFrSXqWVCpBfiSIUoHscBrHARQacLWDVg4Ai77FLCYIhgLMpxW/PNfHb954CyYHuNhnmFY3QIVAwcjMIhev36Ejf46/+tErFFVUkTaWeGKeZzcVEmreyV//P+8wNT3L8Dj8ZEs+m/a9iA6ESVqH45f6mb30PniLzGcUJ6/08ebrxxgZHKDXicG1HnQoBw1MJD2u3hogODnA//4/vUBFdS3Gl5Av1q/H2JOf3XDiacPVO2Mkp8bRGgpDDsPzkLp5m/KqCg7sacU1KdLGZXZsmljYcHcqh+s3x5lOTjBPgLPn+3CrgoRzY7zXNcy0mcO3cO7mJEP2DGp2Cmd5DLNkEbFKlIXSnADP7G7nojdFMuWDzWQPZoB2HNyg/kSnuCUWcfnW3ibGW0rIDaQIRiKk43EiAUthLI+8vDzy81IUFcTQoRhKwaK1BBxNUTRMSVEBkdxcVNLBdTWxYAg3ksvdyQUyiWmmh8aorcshHCvhw+tTfPjum7SGE2z/i2+RGhmjtbaYTZ0dzGYiXO4ZwhiPzduKae/ch3XzwJrP/H2FEOufArRS3JlK8vHpj3l1WwlOVQegsofbTxxztVJcGlrA6/mQ2o0bOXVpmouXLvK/7ClkaNu3MDbOs+3lFNVuYjjucfFyD7kY9nWWU9bYge9ne+qCrqY4FiFUXEAolIvGJeBY8vMi6FCEgdFZZuPzzE8NU1udB7nFHLs0yMX33mV/rWXf1m/gxGfY1FxNU2sLU+kgp6/0E3Q9duRX0LhpJxkjtUfE+vbYQr6xltyQQ2ttKbd786nQM+SV1wOKnvEkMa+fowfaOXfdo9zro2bPPo6/d50tBZOkyqoxN7vY21bKlNeINzlGe1WMitJykvMzOMriuJswvqV/Nk3K9VHhfKzx4b6JOkJ8FZSCuZTP1d4Rxgb6KQpa9m2pp6S0FEMAtZTqMymfZCKNUiY7KReYSGQ4332bzNQAG2sKqWxr5U5Sce7jy2wp8clv3w3WojXZyWPaASwYn5RnOdk9Tt/iBwz3D1NWZVBLE3cTnqJ3aILJodtUqgw7du4mGCvF6Rvj6501tLa14UWKePd8L//vG8fYcOI0I6aQ6MIM335uM527dhIrrsLiYLEY31/FV1gIsVpWRta7Djf647SYftrLmvis46xWsIji1OUBaid6qWxuoijH5y9e7qS5tYnbc4qffXCZ/+uvX6es7gKj8xk6ig3fOLKf+rbNBPLywWocbYmnLO9eGMC9e4L43B1QTaActFbEM5brA6MkJ4YpC8P2LduwOWVEvEFe3tdOx6Z65lWUn3/QzX/82Zs0l5zm5nyIjXqer31tD5vbO4gUlGPRGGuwZnkOk2QHsb481jH5FphLZpidmaYlZimrr0Khub04xWjPZebj84xMZAikxyhMprg7MkW9N4qqyjAVn6U8lsNouoi7XVcorMzj7phHUKVI+4p0MkE46GADYbxYLt19E5SUlBCKVUhnvvhKKRTGQjLj0zUwA0PdNBTvJFRXS8bTgCVpDLOD84xFF1AkgZzsoB0LU4k05y72MjuYYkN9MSlbx+TMHIsRnwIsHorB8TjR24M4oTmK81zChaVYCwspn/n4Apl0CqVcfB/G5hLEp8apLgxTHqknN6gJ5uWzmMxQXxJEFW/g2t0kd/o+wrMJ9m0qJ9etoSDlY9MxhmYN8XPd1FRMEI0WUxjLIScaXTrBEEI8bayF6vwQzR2buHruDZqmhz5RASzLcRRD8x7zt25QtbGM/Nx8Gmty8bXlWNcg8yND1Pg+5Xs7IRCkeDGFUh6XB2cZmbtEeWUp+Xl5+LlRrIXEYgYnvoDvZ1CAbyx3x+IEZiZpKo1hiyLkBh3cSD4mk6ahIhf8AB9fn2VstJtgao4D21sJKkUkDbHUDH1jKSbjXdRVT5ATLaQomkNOLIYEfLEePfbqOlorEhm4PjDJmL4FKIYG41Skk2itcR2N1tlmuAEHrR1ywxEsUQb6x5kP55LvLVBSHEM5mpCT4cJQkuG+i+xsq6akuhZjFNGwgwrkSMAXXzljLfkhh+e3NRCIFfHxb+dIp9NgDYpsMJ5M+KQmxxlOalQmDm4OFkt5NMgr+9uYy3ikh86B8dB6aXyrzh52Uhq6+sYZ97twAjnsbcqjcXsR4YDiyOZyWg88z89ev4jv9ZJ2LO93DTE8/SvKKsrJiRUymbTEZkbZ9/Jueictc4MDVBfE2NBUilKl5GlLTVkRgZIK7k7MMz08wlgizkc9Y8QW7rBzcy11G9tQyl2aMCyEeKooRU5A0dlexWvnihi4fgmlNi7dtnwni3FcunrHCSf6qKzew0TK5eyFmwT0PE21BZQ3VKGtJhIN0FJTyqIu4ObACMmZScan57l5vofqmKFx0yZiYXhpdyPhtn30XMkALhnj8+uP+4hefY3mhjJMOJ/5+UXK1AIduzdxc1pjhu9SUVpEY20JOlBKbsajbkMNOreYvsFx5qYmGI4nOHH1LgXmNnu3NJJXmIvxA8h4X7HePP46+dZSkuuyq66O0o5tKDQLeVOkbox+ejyfzX6ZE3II5hUxNNFLpmCKjZVBNjTUU58J42MZXBwgWl3C7m2byKvYCNYSDDhYpcBYOSEXq0Kp7HhUpbJrPrBSCx96787SXG9J5eWQnBgjVF6S/RlYur/KrgWx/OZVABYLBI2lua6Yth0d6FCM8qgLysFaSKY9EgsLeF4agEhQk1MQxdoUG8oiNG7ZyhvXZ0iO3iQWVNTXVnDs2gSJuWGKvTRzKcX1GwNUB+cobWpBqwDacUglMzQVB6lrr6O4uAQk4AvxVHMs1OUHyW9s5urVM1BTlt3PLe0WtFZMLVpuj/dTVRmiuKICLydKSWMt3RfP4i/GCUaLGJ5L0Xurl+0N+QTyKwlqSxqNm4mztb6Yiup6bF4U3w6xsJjBTyzgmwxWhbPlg0tizMx57KiL4FVt5cz1QeL9FyjLdVkIV3C+Z4SZ24OULMQZXnToP3eJxoZ8YqUVuG4Q0CQX0rRV5lBd1Up+Yf5SpR/Zv4n15ytZDMuSXbzH+n52fK8x9wKDWr7HPWFXEyqOMXgjjm9gZ10uv+sa5/SxY2T8DKPDs4R1kku3JwnnnMT3DN8/WEvbrqPoQAQrEwXFKrAWzNJ7WQcc+qfjOIODuDUN9F3o4cCuGu7EC+i50cumkmZwwiytloXGYpRDz9Asg7YPTRIIYbEEgNqyGBuba9HhQiyQ8j2SnuWNc8MU3X6dqYlpajsKCAAdTaXkhoIU5EWobK5h8cIY7c2llJZUUJxTin9gC/H4ONZ4jI3Ok0hMsXlrDU5xFVjDrNEMXuylIRinpXk7vlOE8TOr98IKIVadsZZoQLOjo4FLY3chOfNgh5pSXLk7z/z0EIe3VJATK0UFg2xvq6Yk5JOYnyNtLOfuDlGVGqd+QyeoKAHH0jOV5u7ATXY35FDf2MBYMsNsCn7+wU30uVFmJwdQdBLQLttbKuidjZLrGIJVZcSvDrGlppCKmlrCppDw/q3MzUygA5qurmFieQs01LURKajEArMpy43rN9hW6rGhtZ6Mp5fG5Aux/jz+kK8UE3GPM8P9FMRzAMX1u3GqUtNo7pXfvn9fEdCKYCTIwNQsMT9NMK+RqbE4BZk4oboGCnCpaKvk2rVJ2prDnLq0wPToeHbirRCrKNsfpDnbN8Pc1XfYXR6gfyFEUbyXLW2b8eZLuHjufeo2DpNb1gQquxhMBs3p3mkWUiepb92YXQfrvoJRvjFkfB/H99AofECnPXbUxqjfvouTH/XgebN42lCTqwk3tHH5Th+3fv0+ofEBWvY24ISjOFg6WopRqoTRpM/Fu2d4aWMRzxw9gh8oQWMZTjtMDScx5i6e72OVbFdCiOzE2p0NxZS/eoQ3z/WCvQvZhb0xQET5NLfUUNfcAG4Y3zMUBhVFbXVopfjozgzhs7d59cWtbNi9B8hWBAsMxJkY78czZIsK+IZQJsPWtgoC9e1MDBisdcBASW6AxeIm3r78EYWJD8kM3aXjuQ2YQD45nqG9uRztVHJtIk3s8gD797Sxde9u3EgRFstQwtB7YwrfX8BaX5YAEeva460fZQFjqYq5vLinhW++/Azf+dpRdu07QLigHOX57OyopGXbdgKR6NLwHUPYhb0bSmnduhOTcHFDEbSXoaYoSkN9DTVlJTQ1VFNeWkpzYyWFhWWgAo/1VxHiD1EAWnNjcoGPPvyIxpxFMnXbuHTpOttaw5RWNbKluZLbbj2Xz19AswhK42OZmEszOT7JlsowLa2bsU4uWltcx0ErnZ2/op3sWH3HYdG6LM7Ps7Eyj472FvKLyjAmOwE4BOxtr6OPMt789Vt0VljqN2xCuSG0sijHoXcqxc/ePkX+9BUOHNiNCpXhOhrHdUlbh0wmTSAAygnIVWwhnmLLIdjRioDjEI2EqKwsQweiKKVwtUYrB2Vha3UeLzx/kOLaNrQO4DgK19GkjOZs/xTvvfEheyp8mnYdxHUCBAIuSgXwrSWgFKFIGBTMpgw2PktHfQmb2jcQCheCzZbszHUVW1truGoq+eC993mx3lLRtBljNI6jQGkujyR4863fURcYZePmXYRzi3Adh4AbIGPASycJBTVWubJ/E+vaY+vJX16TylpLwFGUFOQSieYzNjlLfGaanJwI0VCQvMICRsZ8hrr7mR4fJlgZZjqRYXFyHkeH6Ls1xi/eTKDdYhqiPr5v8HxDxvPwfYOydmnos2ypYvXFkylctchLuxqp236Iv3+3nyY1zeZdB9GhGGVBzTPPbOH0629Sde449duewfNdaiOaLS/spmVbG5dHkwwOj1GY8ZjK7WVkfIReM03oRh86lEfA0SwGQpjEJCWNUSxBjM2Ws3eUImXgxuAkY8ODJBMpBkbn2Tg+TFFtPkOzHudv9nPz9AU2VGkOvvIM0bImRucWmRwfw/oZuseSpOKDlLXWgMqROvlCPMWUyla16R2dJTU3haNg3oPRoQH8qVmu3BzkdjzNxMQUg8NhoneG8GwIB5+CaA4L1uWt8z0kBy5ztLWWzbsPYsP53BmeZX5mmrSjuHJrhBIWyC8qAaUYnkkR8WfILdhAygkuzU7KtmXRs/T1TzAzPogzl6R/fIHm6WFyihq5O5fmzPnr9F+5xrbWHHbuPEKkqIbBqSSzE2P41nJ9dA7HH6a4cgfGOIC3ui+wEI/RYwv5y7V1i3MDbGyqI1zkMh5PcbKrF2/wJttaq4gVldGTMJy82s/c6CCttQFq2jvpmfH56MxVMqlZ/uRIKx0HOjlzaQo7fpXq4hyKVD2lJcWM1mvO9Y8xM3KHnJZClJaFLcTq8S3UxFz+9IXt1FSU8+7lGarTfRw90km0uA7faFxl2VUTY3rXDn52/B2+ZV3qtx3iO4c34tkWrvZNcuPiJVzrcXsK7nx8hdycNCPpIFPnbwCKSFDjRIJEWMTLb+TY8UukRvoobS1kJB7goyuDNCcz/HB7LaXf+z+4fGuQX7x/iR2tc8yGSlns7+Obz22korqW3GiUtHHon5rn4vlrZOKzhLRlT2sFVa1bMDKLXYinmgIyFs7eHmfmVhcoi7WKmJfBVpdxvGuUlJmkqiSPgbhi9ORlLIqINrQ0VjDqhdgYmaH1my9TUlSEG8nNritye5yea1ewjkd+RLN312Zyi+vxgL7bo5QVBhlczOXa8UvEUmPkFmzGs3O8/XEfOSUZ/tcXmgmUvURXzxC/fOsMbS1TzKkYkfQcf/LyVspr6ghGcvBwuDkyw40LXfiZNDmO4eV9LRTUtmF8D6mPL9azx14nv7owTPXOrSggCvybo9uwRzuzNW9RNBQq6l/aBXYnSisUis3W0vGjF0FZNIoMDsqZxJmPUdNYi27JwVGWWGEFZ67l0nA4TOPWWpQblAogYtVY47OxLA9dsZuxBcO2ao/63UeJFpVhrUapbH9USFmOdDZQFXsVV8/iWEMsJ4gFDrRXc2BT1b1LYbDy+fKXnlX0TySws+OEimJEh29zZE8LGzqaKJjwmSwKsbm5mOrGZrQbobmmknO3m9DzQ+xuKiLY0bRS49pYcDBsry1gW83z3CvuIytICyGyE25DjuL7e5thT9ODkfj37KcgW23M2GwPvFqqNmaMJeoqXtzbxAt7G1d+VCmFQeF7PrtqosQaDzLnBykc7+cH39lFdcdGyJljcbyIbRvKKGtsQ6Fpqq3iSm8NodQ0h9sqUYHWlfYZY3GUz6G2Cg62fj37XEtVzOxS0QMJ+GI9e6whXy19VFphbXYRbL20Iq21Fmuzkw6Vc2+RHWOWVvdU2V55a8E1hobKAqgqyIYPZfEtFIYdnu9sRNkGtKOzj6cklYjVki2DaS2UhDUlHY3opff+/ccRaxXRgGJ7ayXYCkz2myilcPS90pufx8WyoTwPW56LtVB5pBBXgXY0uwotprmS7CalMMbgaM2OxmKwhTg6W97T3HcyrJRa2g7v7Q6Wt08hxNNtOZzrP2Lf9EnWWlzAolaq3qnsg+Jkk//Kfc3SPkcbS3tjMahirIG2mjJcrUArDm0txJg6XEdhrcZiyHE1O1qqwFas7D+X913LnRXZbzsPtEsCvngafDUlNO3KwthYY7n/XD/7PfOJ+/NAGczsfuD+lHTvU0erldvUQ+6AhHjUVjq1lt6zn5WTlbrvAvEn3rNm5eDzhylUtja/q1aeWynFfefMqKUDXnYz0SvzZD6r3VJGTgjxeR5m33Q/e9/HP/R4964QLB3Tdbb+/r1vKxxH3feY2c/v3799Vhs/mSmEeFrIIHYhhBBCCCHWGQn5QgghhBBCrDMS8oUQQgghhFhnJOQLIYQQQgixznypkP/k1d548loshBBCCCHEw/rC1XW0Umit75UIXOO0Vtmlt7NFcoX4oygUWiuUUg9UeRD3W3p91L1KV0KItU8pUFqjtEYbI5vvZ1KAXir/LcST5eFDvgKLJbm4yNxcglQwjXkCSlM5WpNYWGQxlZLyuOKPohRkPI/5+QTBgIPvr/33+WpQS2thJBILGCnDKcSaly3fa8mkPebicYJBF8/zVrtZa5QiEk6zkFx8YH0RIZ4EDxXyFdka24lEkjffO01P3yDaeYRntxa0dnAche8bfGMedu2Nz6VQZDyP67fukFxMPREnJmIVGYPv+9zo6ec//bd/JhIKYVd7uNfSyamjHRyt8HyzZt7HCpiYmmVscpo2Y1b7lRJCfI7sSjWWdDrNpWs3+c//9Z+JhEOrHmCX+94c7aIVeL6fXdNjDXTIudqlt3+Q2bn5bEeG7ODEE+LhevKtpSAWpaaqnHgiQVd3zyNujmV+PkEiuUheTg55eTmP8qFBgW8MNVXlxPLyHt1ji3XGEgqFqKkqJ5MZ4vrNO2viQLNsZnaOhcUUBbE8ciORNXO8scZQXlJEeUlxduXJtdIwIcSS7EYZCYeprixnaHSC7jWyf1OA7xtm5ubJZDwK8qOEQsHVblaWzZ4YVZaXUlxUgJKhm+IJoex9y1+m0wt/6O7cHR5lcHiMTMbj0R7FFcYY3nr3FCfPXuLowV0cObjrM1fn/DLPgbIEA0HqayopLy16hI8t1gulFLPzcXr77hJPLLBW0mp29Vr46S9/x+mLV/j+N15g384tS8OI1kIbs/MWSooKaayrIhgMPOLtVwjxKMzMzXPr9iCLi4ssXaNf7Sbhui5T03P8/NfvMDA0yg+++QIbNzRgs0MIVrt5LO/fKstLqaupyHZkCLEGBYP3OsgfqiffWkN1RRlVFaWPvFEAmYzP9Z47nL9ynaaGGvbv2oZSj2fjViistdmJuELcx1pLNDeHzs2ta+TgkqWUwhjLyY8vErwSoLW5noN7tuEbs8baubyM/NppkxAiy1pLfjSPnVs3rnZTHhBwXUbGJjn+0TmmZmbpaGti786trIUTEPWGn2kAACAASURBVCGeVA83Jn8pEGv1mM5glclO4ss+GTzGiibW2uVnEuJTlFJLlZjWznsku/0Zlq+ta6WWhsVY7BpqpxyUhVi7lo/ja62DS2mF0svtur+i2dpqp3ReiCfJFyqh+fje5PZej6Rdmh4k25NYJWtxZ25XPoDBYq3FynYihHhIa27/Zu3yYX9pDPxSZ5xaUxcqhXiiyKAyIYQQQggh1hkJ+UIIIYQQQqwzEvKFEEIIIYRYZyTkCyGEEEIIsc5IyBdCCCGEEGKdkZAvhBBCCCHEOiMhXwghhBBCiHVGQj5rsF6wEEIIIYQQX8JTH/Kzi22srRX1xJNFThKFEEIIsdZ8oRVv1xOllIQ08aXISaIQQggh1pqnvid/tWitcBwHpRQKcLRGKflzCCGEEEKIL++p78mHx9MTawGFJeA4KCfA/edTPpaJyTnMwizFxTGcSB5T0zME8IjkRlFotAbXDYBygM9vn7U+Gc8DYz7zbsu/29N6tUIBPOWvgRBCCCGePhLyHxMFeFZx7fYk3VdugI0vfVdRWxkjbiKM9dzmmb1NXFss5O7Fjzi6tYLcjbuwSjGZ8jj9/g0S80OA+fTjW7BYNtYVsrGtBR2KwWeEWGMN1mRz7v2B9+lg8S1gLFqrle/9vpMmIYQQQoj1QEL+Y2SxGN8S0ho3HGY2pTh/dYD44FXaDx3iN9Nw6e/eoDAcZdfWWkIllaSSCwTCuWiliEYCuORmE/19NJDWDicu9TM3cpuW2mKccAHW+iv38VCcvDHCmXeOUxbz+dbBVmJ1nTxNAdcz8MbVcXrOfURpYpZXXt1JcV0bT9NrIIQQQoinkwwCf4wyBoZHZilRcV56tpPyxhYirqVzQxUdra00b9wEiUWObC6mYctO3jg1Qve5d/FTs0QcjVuYi3IcNOqBf0opUJpUxpBaTGWH6nyCb+Ha4AyD3RepLHAI5BTwtIVbraChMAR5BZw438fc+CBKffq1EkIIIYRYb6Qn/zFylSJcGOZizwzxt96la9xlU36Gxq370CbE0fYK3rq7h2N3Rgnc+RVlKkhpeydOMIwFZhY9ZqdnwWR76NXSB2UhpR0WFxKoPIvS2eBvAGUtKIUFDIbawiC7t24iVNKIZwyOMtkJvkrhGwvW4OjsSYNvwPMzYCHgKLTjrgxusUDGN1jfx9Hgug6gyT5Edj6A7xu0sksTij99/mgBs/ScFoXn+7gaXMe9N4xIKTzPx/cNYHC1xnHvzUvwjcXzPGCpja4D9sHbFBBwNY522FYbYzTRzs3jXfjWZhshhBBCCLHOSch/TKyFkAN72iqZmNvG3//tv9La7DJeWM5/+C+/w9EZrIGq2gKG41CZHOPI956hrm0LswlDfG6GjpIgFHUAFhRola3GY31D0nEYmHeJD11kbHyagsAskUgIdPZPqpY+uq5DMBhkeFHz1rEPOFiWZNOuIyR1iFNXhpi/dpqjB1uhooO3z93k9IkP0Ilp9jQW8uzzz5JXWotVmksDM7zxzilm+6/TUhbm1SM7qdq4g76JDBdOnWUhPUvv4BRbShQvv3SYnOJajF0+PchKZCy/7bpD/PqHhAoruXChl+ZCj5ee2U5j2w6sE6JvOsmxD05z69o1bCpJZ1Uer37tEHkVG5hNw2/PdNN16hRuOsGBLdU88+x+woXV3J1O8dbJy3RfOk+eTfDirno69+4jr6CCgBtA6d8/gVkIIYQQYj2RkP+YKAVpA1cGJ7l95hLPbohy9AeHsaES4vNxlifTFsXCzJow5y/f5OydMUa8j5mOB+nuHsCaORw3+yfyDIzMLmDjU9SUF0Eoj8xsgpRx+de3LrKrfYode3cQyCl8YP6tXWpMImO51j9Eh4qDMlgFw1MJJm/1sbCtnN+dvsP1D99hV3MUm7+LE2d7sG/8hhe++y16Fov5h5/+hkq/n/bdW7k5muK/v3aCHyvDYmEHx07fIbbQzZ4DW2msrUOHc7Gf6DJfnoh8fXieS7/9gJcObOLwzo1c6JvjH395gn9vPfy6nfzLb07hTlzl0LZGZkwep85cJfhPv+DZf/dD/vVqhsH33+Lgtkbmw5s4fr4bFn7Ljm98m1+dGmDi4nGObm1i2Bbw6zMXUMZn/wtfW7lKIBFfCCGEEE8LCfmPiQFujMd5+41TNBcnmItu5NcfXP3kHFpQ4PmWloow+bUbGB4eZndbFY0tzzJ1+Qat26sI5RQTz8Brp28zc/4YP3l1O5HyDpIZn6t9YxTpOVrqqyAYWyoT+ek4q9TyqJZ7DbBkJ2WkUAz0jxNMTLGtdTNlTZ1U17eixm6ykHH5l7MD5M/18hd//iLRul3cHFvk7376Lh+f6qLpSDlBL0NnfTlff/kwOlIG1n5WoZ/scCIMDUUhvnFkFxXth6gbjvPzn/2OS1dusrmsgf1NJTTue5Hy2jqscpnUpfT87r+zY36Km/0pyrw4O7c0EC7bRFN1De70MNOLmuHhcUp1gp0djTilbVysqiI/EF/6pWWMjhBCCCGeLhLyHxNloSwnwHeObGUh5PA3b1zmlfIkRQ2dmPvG2CvH4fztGbq7r/G95mq2H3kG13XIzPlcmlxg5sNTHDq8m5y8GvxAiKsj04z13aK6YhMnLg1w5dgJnjtQBM3VKOXwWeU2fx+LIkdZdm9v5I3+Gv7vv3+fsoLTbGutYVvnZpJOmOvdl2lN+nTdnUePXmA2bUilFhhajFMzP0lhFCoq8gmEY1jtYI3/OU+WLWVZWVlIeWUVigCVBTFCpRUMTvbxjEqQ09HK6PgEvedvMTwxztWPb1KbSpEXcDi0tYE3ekr5P//2N5RGP2R3Ry1btm4hkh9l86ZG3r19nf/w169TU3acXZubKetoBycINv3l/phCCCGEEE8YCfmPjaU0N0T5xjq6RuKEXEtHUzklbRuxxlu5l9YOM2qS3pEBlIFQQONbRUXU4fnnd3Ls9AXOffA+rQdeBJNhIuHxP967QcngaySHJnh+dy2bdh0AJ8rvDfgWlGGplv7SRFubraOPMextLqT+z17l6s1+rnZ386uzg3SdvczXv/8S2g0wMJXgg7M3wIYxFpzFFEWNpVgVxHWyi35h1UqQt6jshNzPslS0X2Ex1mJNdoLtwEya35z+gMk7V8nLjVBeGCGWF8aZcXAUHGktofV//j6XbvRz7Wo3/3L8Ol2Xr/Pvfvwqr+xoo6PqR1y+3sPVG7f4r786z3O3uvnxn/4ApfMe5R9WCCGEEGLNk5D/mCyvNGssgGV8NsP/eOsKRVfm0Y4L1qKUIqOge3CasswYWm9cyeCOUtQVRnhhbye3Lzm8d+4GybFJdneUktB5XHnzPH/1zTZ2HDkEbgHm8wI1gLWEXAjoAGNjs6STCSZ9zcDIKBF/hpTVnL/SR0H6Li9sbePF/R384uIQH/63v8GbmWJTWzuxxXL+/fcPkVO6kfGEx/nLfdQE57F5JUtDhLKTgzMWkvEkQe0TDEVQ+r4qO0phrGV0ZIrRu0OU5DXQNzJDemyQmrpSLk5Y+i+f4t++sJEtB18mTpCBX1xkrq+L+WSSGxfvUM0Q39y3nZcPdvKP71zl6ttvcWdwlLkJh1Jm+e7hjbxwZC//+eenGer9DenELMrmPsa/tBBCCCHE2iMh/zFSgNaagpwwDdWljF66TtQZY9vhTtxQAQtpw/tX+licHqK2uZicWCHacVnM+AyOzTA5MUH/4ASzE0PUVuYSKSglLzXOc4e38Wb9ZrrGu4md/pimDe3kFRShnMBnrmprsRRHNNU1jbx96haJX71OUpfR332TjWEf7ToMT/q8f7yL7ms3CRXX0NU3zqamAuoaGvhupJp/vt3E//cvx6hq6Of2lMf44G1+dLgFx21eKsmpcRSMLCp++vpxdob62fvctwlES1keE68BaxU3RxK89s4ZinviXL89QaU/w7bOZ7nhVXAmt4LjlwfoS73PeMJw++ogbsbDX1zk9nyGY6fOsPnOIDqvnLs3+9neEiK/pp7TF2d4++wHtN/sZTFcQqLnNtsa6wjHSjAJmXIrhBBCiKeLhPzHxFqLbyGxsECuyfBnR1r4Tchj6moX5SFD5aZmPu5bIDFxnu1FEfYf3IeNFDIVn6dvbJ7jH13GH7vLnrYq9r20DwjTf3mUEJaGshg/bGzm7ZNB3j1/hv6BGbZubaG2qRk3mLMy6VVxb7WzXEfxzUPtvOUYerrP0V47w/df2olKJcmLFvKt+g184BgunfsYO9HLlspcnjv8CoWVzRRplx986znePXGWKzd7KMnR/OTFrWzesYf+eJiO9kZKKgIrQX8mrYinJ7D+g2PhDeBoaKovIFZdx40702wsgmf2H6Gsvo1cL0D6O69w+uRJblwfZGtzERu/vZ9bXRVEcwv53sFm3gq9Qu/FcziDPextzufQ3gNEKxr5em6a9xyfGzeuEfJ7eHlLGbv27cbJKwUzl/2bfFV/fCGEEEKIVSYh/zFRSjGzkOGdC314Y7ez9e0XMswol1+930Vx7wy9w0kCyUl0dTEnrwxiugaJRQOUFBXy9S2l1DbtY9aE+Ph8D0ODXSRmZ9neVokKF5KvM3x3/0YmOpu51tXD4sLiAyvfZgfQWDIZj1QqRdjPUJMf5M9f2YF9aRtKZRfQstZmh8grwyt7NvDSrqaV9iutsDY7jL+9Isqm7x7BmmeytznZ22piUPO1QyslMguChvamBqoDKZxQhE9Ga2stRSHNd/dvwi3djLIZlFJ4BkLa8Ex7FYc2fQ9rLVoptFYc3Lp1qU3wg4ObsPvbANBLv4MxUJUf5Icv7sK+sBPI/mx2YS1DOp3C+t6n2iKEEEIIsV5JyH9MLBB2NU0VBZicWlCKFgUHOzfgGzC+T1ujAt2B55ulspOWvKCitbmaUF4xvucTyvhUl+dTGKmlINRAXV0Zxs3BGoOyltKcABUHO7IryHo+xpilea0KR2luT2b44EwXRwMhcss3oJR+YJz88tyB5d5/ff8Y+k9kYqVAOfqB2+4fHqSAtG+pC3lUVrShQ/fGwi8X9nS0QmkXDTiOxvqfHkqzHNCX23X/6CMFD7Tf3vd/9sfUcqvwreWjvmnOnj2Pmp9Aq7bf8xdbO/TKyZWclAghhBDii5GQz+MLU3khzb62SlDV/LFLMVlr8TyDl8kAEA0otrdVgarFYvE8f6lqTXa5KWstJuN94jHAwbKjoRj3wEF818f6mWwgfozB0QdyNeza0oR2XVi6UrAsrGF/czkqchSdU4Ix3mNtj7UQTxvKcxzan99GYWUjBvXIn1OpRzfm3xjDQjJNIOASCYXwjVk6cZN5BUIIIYT440nIf4yMhXTGJxt/v9rHcLDsbCxhZ+MrX2mPsKuAUGjlysT9wg4caimHlnKwfH49/UfEUfBcSzG0HL3visXaDfhaaxaSi7z57kniiST7d22lvqaCYCCAWW63dO4LIYQQ4o+wRkO+Whl2ob6CVKP0eu0lXRpGsxJEv6qEmC2n+dkBWK3899W86g8+y2PpEH8EL6slG/I9z+ejc1d4/9RZzly4woHdnezftYWaqgqCrgv4X9ULJ4QQQogn2BoN+azUXjdfRS/0uu0dXYu/2FfdprX4Gnw2a0x2zoGCyalZPjh1nqvXb3P81HkO7Onk4O5OairL0ev2pFQIIYQQj8raC/kKUuk0F6/cJBQMPtYx20KsFRZwtGZhcZHBoVGCwQAWGJ+cYnxymu5bfZw+d5kDuzsZHp1YuhIiYV8IIYQQn23thXwUi4tp3j3xMSfOXFztxgjxlUul0gTc7KbpOA7WWsYnpnjvxAxdV2/iugFkzI4QQgghfp81GPItoVCAbVvb6NzU8gQNthDiy9FakVxM8f7Jc3Tf7MN1swHfGEs0L5fG+hoO7e7kyvVeurpvrnZzhRBCCLGGrb2QbyEUCrJnWwc//PaLMlpHPDUcx2Fmbo7BuyN0XbuFxRIKBtnYUsvzh/dw9OBuqipK+Y//5R/ounZzqYiqEEIIIcSnrb2QT3Yggus6uG6Q+9dmEmI9cxyHYDCIdhwi4SDtrc0c3redA7s7aaqrIjc3Z2lRMRmqI4QQQojfb02GfMhW17FY6ckXT43sKsbQ3FDDn//o27z07F7qayoJh0MP1vmXbUIIIYQQf8CaDflCPG18Y8jNjfDj776C1ppwKAhkV8GFR7vwlhBCCCHWNwn5QqwhSikiyz33NjvqXsK9EEIIIR6WhHwh1iAr49SEEEII8SXItFYhhBBCCCHWGQn5QgghhBBCrDMS8oUQQgghhFhnZEy+EE8orTVKabSyfJHS+ZalUrUy/l8IIYRYdyTkC/EEMtYyOxtnbGISz/e/0HoSSkFeToScnLCsRyGEEEKsMxLyhXjCKAWLqRS/fus4Fy5fXym1+XAsgUCQvds7eGb/Dgryo9KjL4QQQqwjEvKFeIIosiHf9w1Do+PMxRNfeGXoRGKB/sEh8vJyeOHZvfie/8jbK4QQQojVISFfiCeIBYyFnHCI73/rBQ7v3Y7v+zzsoHzP9/ntOyc49uHHDAyNkp2DLyFfCCGEWC8k5AvxpLHgOA5N9TVs29yOteahHyKdznC1uxfHcbJXBx59K4UQQgixiiTkC/GEynge1nj45uEn3nq+t3QFQMbhCyGEEOuR1MkXQgghhBBinZGQL4QQXxH1h8ZF/cE7CCGEEH8cCflCiDXArswLWC7lmf3PorAopVa+vv8+2Uys7n299L3P+/flm7ncTrXckgfbqhRYHhg+Ze/da7mFfHJ8lV16XHXvwT776Vd+PyVrG6wStfJBCCHWNhmTL4RYdSkfRqYmqXAXCBfWroRZi+b26BypsUEa6koIF5SCzYbcRMbSPzxKU9QjVFhNxjMsLmZA3Qv83H9yYCES0jhuIBvGH5ICtOtwYySOSoxQX1mKG45iUSgFU0nDxK1eGhpihKLFKyF8+cTj7rxHX/d1GgoUVU0toEIsnxgoFHemEmRGe2lorscNRe+dMJA9CdBK4WvN5VvjxOwMtfVV6EDOI121WClQSycwj3LdhE+ejD1wG9m/573gvHK6h7U8cHL3MI/7KC2/X3xrSSxmcIxPOOSiHfeB25d92fasvHezD/alHksI8fSSkC+EWFVKKRJpw2sfXac9fY0XXv0ehIoAi9WKi33TzHx0krKvbyenqBTjZ8Pd+EKGv3njLM9Fezj0yve4MhHm/bc+ADsFaDzf4PuGoKtAOyhjeWlnFZ27D6BCsYcKT3apE147it7xRT586zh/srOAzXuOooMxZj3LGyd7GDr1Fn/1471EYqV4S1WPFLBo4M0LA7z2D7/ixdp5/vTf/oSi2nZSvsVm0kRCDleG55k/+S6VFd9g0QTxMxmUUrjaQQUcfM+QCijePNVDvekhlncAN1pG0LEEAiFQX/7CbMazLKZSKOsTCbloN8CX7ba2QDrjYzIeoZCD0u6Dt3mGVCoNdrmE672QrxSEAw5uMPSpdlgglfJR1icQcFDa+VLt/DwZ37CYymCNz63xOK+/f456/y4vH+qksm0HxjqfHeqt/dzLR9bazz3RVEDGWDKpFKGgg3Yc5NKBEOKLkJAvhFhlllhYs6W5iZPv3qX4ww/Z/uxRlJu3dLtCafVAzrEWKvNcXj28k7ffS1B48hhth75J0St7UGSwjuZU9xi95y/y/K468mta8H2fisIclBN+qICvgHgGBkfGSMxMElj0SQYL+dvXP+ZbcUt+dRsX7sxw6tfvc3BHPt1jPpHEVRoqCyksLsXXAc7fmmDq0ml+8nwbQybC68c+5OXDHjecZobe/h3f/pMtaJUDSjM8n+aDjy4w2nud0ZEZNsUMLYcPcvHOPPPjA1y7NcFNM8P18RmmFiwv1S2y/5UfkltUATp7VeCLSBnLm113OfHb31JfaPjTr+8kv6YTyxcPzwpIGHj7dC/jH33ID3+8n1hNx//P3n02yXGkCZ7/e6jUunQVShdEFbTWggCoxbC72WL6Zmdnbub21uy+w32Ce3Fma/fi7mZ3Zndvp2fYuqkBggQIgiBAaC2qgBIolJaZWSki3O9FZhUku9nNHpIg/WcGoyEjQ3kEaI97Pv440nVLX7Asjl0Z4OCbB8mnh5nzJJnpLPGIhe0LEAsY/HDXYpZs2I8U9gPHLQqT149eI3DnHM+/sJlQVRPS/fOOekugZzzLex+eZmroNreGJ9je5mfPzm1YyVqu3xljYnQSU7kgBBKwDcHS5gr84RT3v7RFT5JOzxK2BXYwxuf9OmFbguO30hx9/S1+/EIzDUvWoLAf+11N07TfRwf5mqZ9rZQCx4QNS+qYml3PzSuf0jk1SrAqgifBNMEfNDEtayE2V0rhNw12d9VRmXqZeLafiohNIlaH8CSW3+HOXIDZ3gGWttaSbGlDSomUCin/uEBQCJgpKs7cHOTujcukXcnwpV4aqv2c6ZmEW6eYLUrGTcn563cYL/gIBfzEti4mUVnBlaE0Hx/+lCWxDC/s386Qv5X//ut3ef/oJ1jtBqN3R5DuHEIEEAIaYj5+8vRGLt1ZzMHfHSAeGCdXUNQETapaGxiagJRStDbVMnhzlsPnb+CvPs3mzRtxIlUPhI73jxbfn/by4Oel+QAzecnbRy+zwRpm374XCVW1gDDvzUF4aB7E/fsvnO/eF+a34gFj01mG+u8iC1kMYaDm06ikpKUizP4dK1BuK2fvpjn2xsfsX5uibvEKbMMgWZ9CCXPhmufvQwHDk3OEh8aQbv6huQrqsdfzwLUKwb15Ejw2NcYAOipDtH9/O+furOSf3jrKzqWKts7V9M5IXj9whNHLJ2isTqBMP2mpGLh1l//9L5fSsHIfUgRK1yoEA7N5Pnv/GHtXREkt3YmS3iPPopyLxkxe0tc/Sj6bYv4XjYfTkh5+hp//DP68qVeapj05dJCvadrXamquyPDIKKpYYHWdRaRpG1a4EulJEAYKcD2JVPevyCvom8ySmRgnLiQ1tbW4RpjzPWNkrp5n8zMrUVJyb7R0flqr+rwMis8lFdQGBT/avQq1azV3Coo3/vPbPLvFT+PKzUCQoWyR//s3n7IrdItdL7+KEBGkoTjTP80bv/qAxGwfm360CyNaS50q8v2nd/DZMR93b9/G9DILQZlQIIWgZ3iGDz48xZpqxdrdL3FtGPDuIG2Bzx8gKB3ikRCBoMTvt/H5fWCYC3ergEyuyPTsLAaKdDZPRdAgUZFitmAwPDqOO5chFbZIVVRQsEL03B2iOD5IvDZAIBAiXbTJTU4gTUVmNkt1zE80mWJ0Js/42ATCK1CdCBJLViBE6dwTmQJjo2N4xTypiENlZQpEsBSQGiZjszlGeu5guRmqK6IEI3GaKiM0Va5CCAPv5iTXjnazcUUHHeu3AQZ5T9I7OkNmepKAqahORQnH4iAshAHCEBhCUJQGfUMThMhSUVGBsBwmsgVGR8chnyMZcUhVphB2gKnZHPn0DJZjMZUpIHNZqpMBIvFk6bgLOfgwkc4zMTzO4OgMczMz9Ay6qOs9zHg2KX+BPU91smHzDpQVYQL4h384hFK5BzoMs0XJqeuDHD96gY5oI6FFU/iDYWZyHqOj4+SzWRJhm4pUAjscKc3/EKI8V0EwmnaZmxylNhXADsbJFRVDE1Nkp6cJO1BVmSAQilKQMD45i08UyUrB7FSaoCWpqUrgBGNI+ce//5qmPbl0kK9p2tdCUEqHGJjOcej4RQZ7ulldafDjn7wMgTDKKyIETOclfeOzZNLTpJCl9BEBp/umOfPxcezbt/if/2YX1cu3MDiRZfzqDTbuaQERoliUzKRzWLNphJQ4PhthmJ+bD/15TEOAMDAQWApMw8A0DHyWCYaJXVQIw8AwDAK2iTRMxvOSE1fuMNpzlfYVlfSMF7k5cQWpJIZSbF1axaeTjYzcusNCZ8QQzBYlH5y4ya1jn7LypS7Gh9O0VKYY9TeQLWQJBseIKj+pZIxgSLG23sealStxwpVI6WEIgURwYXCK3751iIZAlkzeZOfSGI0rN3Do4gTXTx1HFTNUhwz2bu4ivGwrx85eZeD2dT6cyBNv+BTVuJlP3v6EimqP7LTL7jVNxDpW8s6HF+nvuYQlPJbUhtm/cwPVTUvpnxUcPPIZd7ov47kuFSHYt7GD2hVbUZgMTBY4ePwSo4VbFCZH2bwkya49ewilGlAKzPIsYzFfnkgoZvIex6/0c/LTk+QmhrCFZG1ziu3bNxCs7wAMDAGuEpy/NcZ7b7/P7ibFjr3P0z/h8c6xc9y6dBpbudRFbPZvW0XLmnWcuDnJ6QMHqKqAcc9mbGiIlTU2Tz+1ncrmLiinKHlK0D0yy/EPPuPWyAiDV65xLBPlRtohWZkAN4cQfhxTIW0DoeQjv3SAYHg2x6nT17h+Z5D3TxWobuvGSC3m4Mkr9Fw+SyGbIR402LG6jc1bt5WOIUodmDvTBX710RWCI+f50bMbyZlRjl3u49jHxyjOjBFxYPvyZjZs3kguUsu/fHgJZ+wiIhRhcHgGkZvl+fUtbNizD+FE9Pp3mvYdooN8TdO+FvNZFV3VYRr/Yg+//LCasVMfowpzpZFMQ5BDMTiVpX9ykrnMNHgSDBOk4oUVNVRF9vP2P/ycQi5TmhhrGJhWaaKiEDA4Ocf7xy8T7p6iJgDLVywmVtXwRxUs8ZRgIp1ldmYWU3rcKcLU7DR3huegbxBhBBjOeaSnJhkppOnuuwtiBr8t2LGkmtzYNi7dPMWkewF/tIIZCRc/6+bvn6ok3P4co6azEHiVJqlKqgIG5rp2Pu3OcvHMe2zes4q7bpTp8RHGRodQaorQjV7kbBF/MlYqNKrkA52X6TmPs9dGWbo4y7P79uNU1PHu+SHOHfmAF1dXU9O1gwOXxvjdoU/5cdjPrvWLuXall311U3Ru2MaxAYMr52/z2t4Qq597mrQR4+cHL1C8eZpXn+qEyg7eOXqNd988yEvfc3j7dpgbH77Pj/5i20SSxwAAIABJREFUFbHW9bxz7CrHTlzh5eYWXAzujs+xhxy7923ig+4iHx45RFP1ebq2lUb77ydEaR7Gqb4JfvmbA+ysy7DqpZ30ZGyOHDhGbvYQz/0oimkKJAaf9U3w8aULLAuOsXrNfgp2hDeOn6Xn6Du8tKuLSOsqPjzdxxvvneQnUYt0roZL10aIuXM88+xT9BVX8MavDpHyfcrTDc2YvjhKSmwh2diSYtlfPc9/OXSZiRtX+P6OJXTt+x6903DwyHFQ6fuv/DHvuaI64mPjpqXIm5d4fkszTs1i3jh2k0sfHuKFrc1ULt7JgQsj/ObwcRYlLPCtxBSCodki5z4+x9TVEzy/dxWBmk4+vD7BG2++z+bKGVa+8hRXxuDg0aNYssDip57n9tgc2bNX+cHTq9n6wnbeODvK2x8doXNZHZFF67/UHAtN054sOsjXNO1rZZoGPsfG53PIGCaU0y8EgqmcRMzMUGXZ5DNFPLeA4XNAKGxD4HMcbNvCMA2MheoyYuG/ftskFQ8QrUgQtRWW7fujAnxRHiXuHprm+uXLkMswWjTovXOLgD9E97QBwmKmqBgeuM1lexL3k3MoHNorQqzctIK2pnpq5+7w8iubCFUtZUzCf5o+gOFMI5V6cGRVQTbnEvHy7Nu7jMtuJZeOf0zUb+EPxJlLBum+U6RGFlnSXE8oZREsRJDC4P78cijlk9f6fWxcsYhlq1ZzZRxuXjxJZ9Rj9YY1BJKN7IvX8Y83++g7e56mZ9sJx5LUpVxiFdUYgxO0VATYsn4ldUtXcejaCIPXr/FCV5Llq9aBE+XunJ9D/+0s63quYpmrKJgOQyOz2JFx9q5chEM9RrASU91meX2Yfbs2UNO5Dq8qz8iNAaamp1HFOfA9HOSDq+BKzzBNcpxXX3qGcO1aOpRgNGNx6eT7bL7bhzB9nBtJc/wXB9hUrXjmx98nVtvBrRmX8xeu8UxLgDUbNyH8KQpmlF/2DHD55HnEoigNUT9Pbetg+fr1tLsBTlyaYmTmHLKYxvLHFlrTsEzSWclA7yBjXo4TF3pINF3Grl1S6nD+oXcICDomVRVJYqEI9ZUxhopBem8PsKMtyJ69ezBDdcQbl/D/jKTpvnyBQsciJpTgZx9cgMwM/9uLK2lbuY20Z3DqSj/B9BB7vredWHM7sVq4cm2Ys1eu0rhuiCCwqqWaHbu24q/sYDaa4197rjE72kekfs0XumZN074ddJCvadrXZmHuIwAKQ5Ry4KcmM/iNPLenBRFvlKqOdgYzDq3pScK+4H255wqBYK6oGBidQhVnyp+XJhvWJgPs37KU8KLVKKXwZBHPdb9wXrJSYKFoqYqR8i3DVi5nxyWZ67dZv6KJ2tblKExG5hQ3xxVLAiZb1nchzRAxn4nwRZHeFJ6CmbkChZlpetMuRn6cYDiEYRjlKaT32sOyTPpm8vjP32Qy0YlpSPJmkKs3BpkrTjM2MoSnpgjf7MMfiGJHIhiWwQOTYQFDKOJhg2gsgsRmNjNLemKa7tk0vzt8BoyreEB2cpLxkEdDcQ6UQsnSHyEgFjOJRCK4GEzOzjE1N8W5HsWdtz4BFCNzHoXCHHOZOfZvqWBuaBsfXTvP3Kk3WVITZvPapcRqKjANRThkYvt8KKXwGQZOwEYpr1w684EXAYHABbLpNHVRE1+sBs/zsA2LeDLBTb+fXGaWAg53piaJ+CSZjI98LovCZTpfYGJ0lqv5AlPvfQrKZLYgyWRnGMv5MIpZ/AEDx+9HKRNDQSQSQOQB6c0vtQBCkJdwsXcMe6KXwKJGLgzOYH1wjK6NLgLvD1a3vH+RN1Wu/Z/JFlDFPLV1MYQ/hOu6JEMm8USS2fE0xXyeISlRI0OEfX6mZzJIWaQgbSYmZxmZyPHOZ7fg3ASeEowNjRP0ueRzc9jKI+gEEKYPgSTgs1COhVfIo3N1NO27RQf5mqZ9IwgEReD4lSH6+26zekWSa6NQYc/SsWUzV671Mnb3NqFYCgz/wqJYaaU4fOE2yf5Z7GiiXC9eIRR4UpLNFQjIPJ5brltfjvAtU4Cw8TwXKb3PzdM3haIqFqQmEcIwLS4VxqipC9C1uI3KphYUBuFZj1hqgNrQDEvaFiHNCChJRpV+XZDApYEpBs9PcHd0nI7ULI0ty7mV8eEWiqXeRKlnQnXEoamznSMHrlPhO01XfZJgIkWrDODZSXoGPWqkx5LWBgx/AhOPTHoOO+AhxEOjtKZCmKU8d59j4YsGiAqb2ookwonjotioHJpqbYQZeCAGvH/1YAMI+i0cJ0Q0omiorUAqk2Deo9pcSbKuiYCU/GjbEqY2L6avf4TT1wf4r2+e4W8sF1PU4CmQ969YLBfO8th2twDH72cs7SFz09ihBooIMuks1lwexxfAlLB1UYLNz2zhrRNDHD7wES/+IEXQWUQwEiDqg7rqShQOcVcSdvwsao1wp+B/ZBExo/wOwr1mUAL6Rue4eeYSnc0Rirk69lbnKQTqGewfK3eG7utg/Z7lcJVSGCgMU+DzOyjTZHIqjeEVMJw4WVcxk5nFF3KQlkmNKfib59ZzwWvh9SMHqG/8jFjnLsLhAAGfQXUijBWpxZUKYYaoDRWxQwmkvFv6hahcqQcBxsJ16Vm3mvZd8uVXT9E0TfszcJXgSv80Zz47S9jKMpA1mLl9ja7GJCvaGgnXtnLmwi2mR/oRQoGAnCu5ls0zMnCbjuoAVqACA4VpGKWa8UJgGAJDGKVgrBzISwXXRzKcP3eK/OzoH1xISiqFlB7jBcmVc9epTJgEIkmKHriuh6s8pCeRnkK6Hq5b+nspkC2FVhURP60N1WxZ1si67du5mwsQcydZ0tWC6YsxH4A5BrTVVXDbaGCw9zoVSZNbozm6e/u53XuH6alxRqdmuNU/TE/fAN29A8yOj7BwsrJyn6FUIlMpaqI+Wpc04Y8naKsJsXFNB5G6RRSLRZIxG9P2I8ujzczvK0uTYE0UTRURmls6CPnDrGhOsGZ1J3akAsOdwxcOcPTGJO++/S5OepB1y5qoW9SEpyyUlOWg/sHUpPvPtXDNSi2UOTWBlsYqetwIRw4fZ6C/h5PXb3Pj1Ema/S6xqlqEFCT9Qda21LBl2xY+uuVy6cxJqv0eXZ0tGE6AzvoI69Z2Eq6qw3OLVAVNpOUvXRflYHj+eubLhJavpyjh7ugkqeIUS1YsByNAW0WQfTs3sKhrLQq7VJq1vO98ez38HATgmCbTmKXjOXNU19TwafcM506dYmB4gPeOXmB24DKN7S04oRhxpWisrWb/xk7y1St5/6PTGDO9dLbWkKirpzpssHFFK42LF1NEEDIkPn8Ab77U5kK9WcplY+/dq6Zp3w16JF/TtK+dVDCdnsOdmWRzZztO+1re/fgsq+MeS1esxDEtVrbV8c/nK4ifPseOvZUYwRTpuTytNQ7Pb9xIw9INXDk/zHQ6zfjkDFPTLjOzacYn06iJKTzXw2+bBIIBPCzev3gX89wBmn78Ak64kt8XAAkUnrB4/8IgcwMXWLa9GV84/lAW/ON5UmEJSVd9HLtiGaC4NlXgndff5OV1YRa9sB0rFAFrFFeWAt90vohP5XFSlbx1ZozmmgssX9KEFa0iEkwRUmlqaisQVmlhr0DEh3I9hH1v0STLEPh9NsKw8BQkHMVTG5fyTiHLfz9wHkOdZa7osrI2Srx6CWnTwWdbmOVVbi1D4PM5YJhIJE3JAHt3beTIBx/xf/3zQbAcrGKRHZ3VxOOVLLJCvHs2wI1ffoBpf4qpiry4sYL6Jau4dGaqXNmo1JkSBjjOvXOVPlRYhiAQcBCmiUCxua2Cmb07ef+z4xy++is8KWhLOOzfuZlAsgHTuIpp25hKsbOrjgurtnDkxCcsWX6TZ7cu4a0Ppvl/f/0xwjxBoVhgQ2uMVO0qrB4bn8/GMKz5Lg0+y8S27YWyrQCGgrbKEB1PrWfUjiLdQfA8EiGHmroqJj5z+O3RC1y4NYk0/KRR9PUMwIa2B94MSynqon7M2npeP3yWnyQ+Zd/6lbydS/MvH1xCfXAJoVz2dFXRvmIHA6MhHMdGKUFrys9zz2/mwL8M0HXsGNu2P09mdhu/PnUM5+Tr5DyojSoalqzGdEI4toktbZQwQZVS4HyOjTCtL/C2apr2baKDfE3TvlYKEErRngrR/sxGAh3rOHLuFk1iiE0bt2FH6yh6isaoza49mzn5/lHEwQ/ZuHsbq+oitP3gKQwnyG8OXmdwpIeiq/jtgfOMZSwy+VnePXEd++IwyvNY2RBhzab15Hxx7vQPszXpxxdK8IdGOF1h8Mn1Ea5/+gE7lkVpWboSdf/KuaoUzM8vcDTPFAon7OdWTvHR6WtEq/IoBKcGZrFn+zDCW+gemSYze4frV4eptQ1G83D53CWer52ja+OrXLlbpLe3h5lLt3GcYYquxFCSgdEpEAJXCRoiiq1rOwnXtKAQGCi66mJUvLKbRE2w9KuCKi3sFH5qPf3tNeTTM0R8gtbGGqIVNTge/PSZtTQECziGzZrGBIu/9wx2KonnefgMWNtWQWVoF4ODg8hCjpqon+bmenyhGKvigsTL+xga6MfN56mI2rQsqsaOVbFzRYRczUsEkpV4nku1D17as4qUvwBWGJB4CrqqgyT+p31ULwqjJFQELF7ctJTO+gQzo8METUVrQwUVNbV4hs1z6xZhLQvhRCoJOPDTfauZHUhhB5MsC8eJPLudwf4m3GyWeMiktamGcLKaDcYcS364j6raMFIaOELy/MYmfIUopi+5MKJvCUVtKoJZGWX4TgbXkyglUYryHAFJU3WMrsXNSCvMlJIM9mZLvdb73ymlqAk7/PT5zUwPN5CojBGvjPPaM5vp620gl56hKubQtKgOM1pBl+GS+uleKhdFsITB1tYKKn/wAlX2HFXhAM9vWsKyuijpiTF8hqK5Pk51TR0F08cP9nYSk43YgQTKUzSF4K+e30UiKUqBv6Zp3xk6yNc07WullMIRsHN1M2plA9cnc7RGDLZv2km4qgVXzmcTSzY3JzG3b2Kq+zzFuTlqKisg1kI677J7iwFqUWnVU1lK51lYAVWVUlmiAQvHH+Z2xsW+e5dle1uxAnFKqS6PH+UUQE4KitkM+1c0sHxZB3YotRAIKiBoCzYtqaXBZyON0v9WJWAj6WqpZHp6OVfv3sYevopUBlK67Nq8FJJtXDxzlcmhOyQ8yboN6xBWnI6aSZav2Ui0roPGZsnYskZymVmEkvdWM51f+VVB0BH4E5FSeflSGjbV0QA18Wak5IE0lIZ4kIbEkoW/lzJMJAETVnbUoVSpHGdd3IRExwOpH45QtNenaK9PPfD8lFJYAjpqE7TXJu5tA5SUNNVEEbXxhVWHwzYsbalZmCBdLpFPVdimelVpdeL5lWtjfpN1HQ2ojoby+Uq5/UIpFtfHQCSQUoJUtFWGUJXLSrnyKFoqwrRUdt53r6WUmvpUgIaKtvK9l3LlF9cnQCTvOzcgxPwSaqRCFju6mojXekilCFiwaUk9Df4Ube2LUVaAWaWwC0GClQWUsOYfEgqwDcHypkporlpIn6mPh6hPLH2gvTwpqQxZVK9sX0gDitiwrqtp4dkkg5Ba2gQ0LewrlcJRiuWtVShRU06TgoQjSC5uKvc7dLqOpn2X6CBf07SvnWEIgiEfEj/LfD6WVa3B77dRyigtjkQp0DKkx9r2Cor123AcEylBCEnYZxBprOQLpSMoScp2efWZ1VS1RMC4L2XkcV8H/Ei2LKnFMWoxbeuBcX+lIGoLnl7bjCUa8bAWgnGlFPUxhxe3dJHPtSFUaeqpZQhCQQdp+Ni9fhlesR3HFASDfiQWlcuX4dgWridxDKiviEBF9PfellTygSCuFGA/GtTJ+/O1H7pPdd8I9P2dowe/Ix/edYH3OdtUuSPxwHE+9xoeOqcCTz3+uPKha5T3X//8OR53HvXo+T+vXSgfpzbi8OLGJTgmeC7EHcGGpc1YQuFhgecRAHZtbMUxVTnIf/h6HzzH7zunvK8d7l3vffMlvmCbfN57oGnat58O8jVN+0ZQqjT6GnAsEFY5YHuQRGALcMIBSjHQHw56Hj0PxH0miRUtpYo6XyCx3hJg+53HBqelkXNB0Gc/drspBNGAjQj67l0D5YBUSfyRUOkXB0qBnakUWOV6/kL9wcBa+2pYhsD2O6XpzVJhCoHtPPjMDSAYsB/bidA0Tfuq6SBf07RvlEcWiLrPfDX1LzMyOZ/OslBc7IsM/vOHgzb5eaPAlPL1wXvs9seOfusA8RvngXeg/M487pk/rnOqaZr2ddAlNDVN0zRN0zTtW0YH+ZqmaZqmaZr2LaODfE174j2YbyKEQEqJ53k6L1jTNE3TvqN0kK9pT7iF8ojl0pFT07OcPHuJ7t4798otapqmaZr2naIn3mrak0yAaRq4rsfk9AxXb9zmyCen+fjkOX76vWdZ2t6kJwJqmqZp2neQDvI17QllCAOlFCPjk1y5fotjJ87xyWfn6R0YQimFJyWGYSKEeiRtxxAGwtA/5Gmapmnat5UO8jXtSVMu7T45NcOJMxc59NFnfHziLLf6B1FKYRomwhCMjk9x/WYvCvlgkK/A8yQjYxN4npz/SNM0TdO0bxEd5GvaE0YIget5HDh8nNd/d5D+O0O4rotpGKW8/PLy9e998Amnzl0BpR4J4pVSTEzOkExEqa5MIdCLLWmapmnat4kO8jXtCaQUGIZBKODH8dm43v0LLSkEYDsWwaD/scP0CkUiHmXzuhWsWbFkYURf0zRN07RvBx3ka9oTRimFY5k8s2cLXUta+bici3/5Wg9zuTxCCCzTYN+OTfzFc7s/dwVZISAWDRONhJFSInQlHk3TNE371tBBvqY9acoBezQSYnXXUpoX1bFhdSefnLrA8VMXuNnTT3YuRzIRpblxUXmHx2fdSymRUo/ia5qmadq3jQ7yNe0J5UmJUpJoOMS6VctYtriFnZvXcOzkeY5+egaf4+B5xS+0IJYexdc0TdO0bxcd5GvaE04qiVIQ8PtYsaydpoZaNqzpIhGL6BVvNU3TNO076okN8nXwon1b/amj6vP/JGLRMGtXLEXKUulMPUqvaZqmad89T2yQrwMXTXu8+RVu9b8RTdM0Tfvu0kteflEKEH9q4KS+xL5fDQULQ8EPXOaX/MVk4bji3nHv/xVmoYK7AMMQGIJ7fwxxb5/HHrt8XP7c7aoQAozyyfVvRpqmaZqmPWme2JH8r5qHYi5bJJudw2dCJOzHtHwgRHnk9PPTIqQSzBU8DC9PwO8DYX61F/8FiHLg7UrFTHoO3DyxiB/T9n+541IKkudyLhTzBII+hHH/a2eQLRSZy2SR0kMIsbCgk1IKQ0AsaGP5gg/1PkApQS7vglfE73cQxp+nXecKkkwmg1AekZAPx/GD0P1hTdM0TdOeHDrI/wKEgPG84ucfXuLy+++yZ20lT+/bjfQ3gJslEgthmM7j9wWmi/DLz/qI9B7mp68+TTHQAOqbVbbQEIKMB7/6tJuLRz+gIeLx05e3EK/rQn3JTklWCn758W3UuUO89u/3E0y1oaREAAXD4MTNEd57831yM3fJuIq56VliEQfb7yfqN/n75zqpX/EUmL77rhemXXjz+C3E7XN8/+X1+CpaUV92USdhcGV0hncPHuHq2TP8xxcWs3n3S2CHvvSvGpqmaZqmaV8VHeR/AQJBwYVMNsfaxgBP795EMdbIe4euUq0G2L5nA2aoCqXko7kdAjwJE5kC3vQEqOLCSDUsZLIgxKO7zk+anB8N/2P8vgmXQjwar5qmYHimwLGPz7K9wmXP/j1EahofCfBVef9HL6icz/QYnoKJ2TxqdBy8Qun+y9ssJVlaFyf67GaEzHK4L8ONA4fZu7aOhiXLsQyHeH0CDPve9Zf/KxVMzeYRE1NIr/jAcX/fvT74hYfuRSk6K4MUd2/jet9dMpk0SkoMxL3UIk3TNE3TtG84HeR/QYpS6kgyGiCRquBMWnDiUjftRh8ruhqoaIwz55mMTUwyN5vGb0NlMkIwHH8wKhaQdRWTY5MERIF4MoE0HSZn55ianEIW8qSiARKpBJgO47N53PQUpt/P1GwGSxapiIcIx5L3pa88GlwLIZjJuWRnJlGGRSadoSLsEE8mmSooxscm8fJZ4iGHVCpOhhC9QxO400M4NT58PoupLHi5cfKGiZtOUxnzE4glGJspMDUxgalcElE/8XgSYTpIFFOzc0xOTCG9AvGQTSqVRAg/AnAVjM3OMTh3B0sWqEqECETj1MSD1CY6EMKgLzDD5IlLdLU1snjNKsDBlYrhqVlmpqYw8EjFAqQSSRD2wq0bBuQlDI1MERQ5kokk2D7GZwtMTY6jCnkSYYdkRRJh+cnkCkxNzRJwYDbvUchmSYZ9JJIJwn4fVZUV+EJhEFl0Vr6maZqmaU8aHeT/kQSQ9xSXuoe4efsW43O3WdUeQgYrOHp9mvOnjuGmZxAo1rQl2L97J8RaShNLEeQ9+OjSAOc+fJ+d7QHWP7WPG+NF3jr4EcM9lxEIFsV9vLR7DbXL1vLO+QHOvfsLWtpqGZ7MkpmYYX1ThBdf2Ee4tg0lxWMH0JWAz/qneOfXv6Aq7JDNFti3qoaWtVv47acDdJ85juFlqY762Lt+MeHOrZw4d5ne3h4OpU1qqvz0Ouvo/vRjglU+1EyG/etbMZpW8s7BM9ztvYjPMWmtCPDMrg00dqyiZ1Ly/uFPuXPzMq70SPkVL25bQu2KbSAEt8fz/O7QGYZmJMWZada3hHjmuf1EqttQUmEZCiXlwoRaUOQ9xYmbI3z80WGmh/oBg6YKmxd3rSXYvA6BwDCgIOHk9WGOHniPXU0G2/Y8S++U5FcHP2H45nkMoagLCZ7buZb2NRu4eDfLP/3sXVYkppg1wgwNjNIag5f2b6Jt+QYggNCxvaZpmqZpTyg9m/CPJAG/IVi3pJ7lHR3sWbeMFdv2cGJQcuS3v2FdtcF//OuX2Pr08xy84fHRe28h8xMIYTLnCU5dH+LE+x+wIqXYuGsHE2ac37x/muy10/xk9zL+7u9+wkx8Kb/97VGmh64zM1fgfM8kVWqav31lJ+v2Pc+xfpdLJ45hqLnfOyE0V1Sc787QYEzy9z9+mkWrtvHuxXEuHHmfV9dV8r/+3V/itG7gjaNXEf3neGpzJ+0dS3lhWxcrtu7FNfzcvDzEutg0f/n9/YSaV/KLQ5fJ3zzNf3h1A6/9+DVG7RYOvP8po3eu886pXu5cPM1rO1r4+7/9IUbdSs6cusjc7BgKGJks0uTL87+8touunft571KOntOnMQ2Xx/4aAfRMzvGP//weqXQvf//aHr7/4+/Rp+r5558fJD1yHcM0KCrBie5RDr1/iNWpHFu2bCXrS/GrIxeYOv8er+1o5W///WvI+rX8+q1PmO69SM6TdN+dIT82xKubWvneT35Ar1fFx8c+o5ge+UZXQtI0TdM0TftDdJD/JxACgkGHQCBIIhTE88W51n2XdQ2SPbu30rConT1rl7J+5y5OX50kO9YLls3p7jFe/8UBGhli99Pb8MUXcfVulsHbV1jfmWRRxzIqAwFWrV7KmSmLOzfOYroF2m0/e3aup23xCtavXEakbRn9E1OIQub3BvkCaLBM1q/uorG5jbwZ48KZPlbEJO0rVxAPxVi1rIVZq4re6z2ELZdgMEwyGiylGRkW7VU267ZspbalnVHCjNy4wpYVSapaVrAoFWNpZwe3x/Pcvn6VQECRExbdfWNMDdzh6eW1bH/6ZexIFQJYvSjE7r3baGlZysaVi6lo62J8OgMyw+elHF0emCEycZUX9q2jbeka1i1u5um9O+jLVXC3+yrKEHzWP8W//vYgDfke9mzfTKCyjatjc3RfucbWrjqa2ztJBUNsWNlKTz7Ftc/OINwMlZbDztWddK3byOplHdR3Lmc4ryhkph8u5KNpmqZpmvZE0ek6fyo1X6ddkS9KipksNVVx/KFwOfUE6ioj9OR8FDNZUClmJ6cJSslk2CY9PU60zmMyXWAiO8fFvgzDh04iMZkqKgxRZC6dAVMSNAyE7UcqiWUZ+Pw2hbQsVej5vbNyFVVxCEWieEqQzhWYGZ6ir5jhjcMXQV0h7cHc5ARz1UHcQg6QKEoTd5WCRNzA8cdwPYOxTJGZ9DgX+k163/4YlMdIxsWbS6OKHs9urENOb+TQ6ZO4J37H4roY29YupSmVABTBoIFwfCgpMQ0Dv99GKgXy8RVxBDA7m6cmAKFkEikVwpCkon58/gS5qQy5sGIkPUO9myUdTjA9PU2MItPpHNnpLBcGc9z98DMwHLIFD1SWyYJNqJjHESa25QMEphA4fps5QyGl92/wwmiapmmapn11dJD/JYhybXy/z8QKBhkZnKYwlyUQNym4cHc8g2VnsQI+hFLsWF7Lnqf38a9H+jl46CR/WddAPJwgZPqJ+jwaqivBChDJeYSEIFWfgGELyf0LSJVr8pf/ZhoCYZh4nnxgkSkoz8u1AEOBgqBjEUhFCE5ZNFQlEFaUdNEjIhwaW8MIO/xIh8FAIBCYBsQDJrYvRiTk0lRfjetBIFtAhSBetwg7X+TVTe08s6mDgbvjHLnYzz/9/BD/IWoiVC1KiVJJHFGuy6/uTUZ+XEdFAaGww3BWkpuaIrnIRCIYT+fJ5CbwRZM4rmBPexXbn1rFGycnOPLRaX5YW0M0VI8vFCDmn6ahpgJhhcgUPGzDR11bmCnDQZVa9v5mfaQWv6ZpmqZp2pNIp+v8iWxDYPpshqenKUwM0dqY4vKowSefnqHn1k0+OX+diydP0tUaJZCsw/OKBIN+VnTU0bVhE2fuwtmPj9EcLbK4o4NQMEx7fYwVKxfji6UgnyUUi6GEwPPuC0YBTymUkkgEl/unOH3qAtmJIR4uICmleiD4r4j6WLGmGX+iguYKP6tWtBGurMZVLqGghek4uFKiyiPrUklD7jzsAAAgAElEQVSklKAUJormhJ/2pV34rSCdTTE6OztwQgmEcrGDPj66Nsbb7x2iMNzN4oYktfV1OL4ACAOpwPO8hftQ5etTD43iKyjdr5IoBUtqo2ST7Xz4ySVuXLvAueu3OX7sM2rtSSqbWhFSErV8rGytY+PmTZwbVpw6fpxFwTxLlrXh8zl01MVYuXwx/ooq3EKeirAPZTqltpH3OhpSqS9fZ1/TNE3TNO0bQI/k/wmUgrhPsHhJPac+vMTFT06yfutusjv3c+zyaU7fOkC2KFmdNNm7ez+Ea4j4bhMIhfEJwa7lDYz0ruKTq6f5Yecd9u1ex/sH0/x/b30CvrOofIZNTXEiqVoid9IkkzEM0weqNHIfD/gJqiieYXLixihDx45S8dJyQqkKlLSYr1nvd0zisUhpZV4g4TPYt6aVN6am+Nmhi/jsK2RyRZZVh0hVdzFmB0hEQjgBByEMQj4LIxYBwwKlqAk77N+1lg8PpvnPrx9E2H5ErsjWrmqqqmpptP0cvuHw+rvHsfyXwMvzyu5Walq7iIzN4MWjCMNGKbAMQSzsx+8LgSr3NRUEbIN4PILl+FEKFlcEefX7z3Lm2If0/O4DXBwidpFXn9tIqr6LYN8AIhzEJwQ7VzXQ072WU1dPs3jFAM/uWs4b703zs3c/w7QukslnWdcUIVHbgG/KR0UihB0IAGAoRcRv40QjCNN+/IPXNE3TNE17Qugg/48kSkk6+IVk94pFNIafJUmWumSMv9i1iJ6WKqZGRogFBO1NVYSTdeQ9eHpZNXbjPlwrSa1P8Mru1cyOVeIPJVgRj5N48SkGBu5QzGaoTTg0N9VjBRNsX5pmzV8/TzBZjSclFY7ihfWLCXnVCDtKS43CqK5EWH4emLyqFMtrI9S9vJdYTRzplVaYbUkG+PEz67nVW0dueoJU2KapoZpoogpRhO8/s5GaqIGBzZbFSdzUM1ihCqSUWEKwtiVJ1at76e/vRxRy1MYDLGqsxxeKsi4qqHnxKQb67uDm56iO27Q0L8IIxNizKoRqehYnUrqPypDJ81sWkzQakAQAiatgdbWflle2U1UdQmHgNxX7V9TRVvEsQwN3sFWBlro4NfWLyONj9/JaaN6OEUyRsDy+v2sVM0OVOOE4nfEIkZf2cKe/n2J6loqoTVtzLb5IFR2+HH/92lbqUxZF18RSBXYvq8NbtI9AogLl8djSpJqmaZqmaU+CJyLIV0phGAaGURrxlbKUrvJVEkJQlIqRiTSjo8NEzTjVET91a5eUUlFcFwdYt6QRsawFANf1kNLDJ2BJdRREHNf1EHi010QRdQlcz0NJSXNlhLaa5SBEKc1Glj5vqY5i1CVw3dLfg7ZgWUMFiGoKnofPkrS0JoglUyhM5tNhBFAb9VOfWIzrSqT0SmUhFdRE/NSv6gBhoJTC9SSe9IjYsHJpM55USM+jqSKIqF6C67oL+fOWAW01MTrqSotxSaXwXA+pJCaKluo4bXUpQJSO7XooJemoi0JDEs91UVISsg26mivxEEi3lI6kFNRHLBYtb8P15ELNfBNY2pCis6kaKKXzeJ6HjaStJgpGqR1xJa1VEURtZ3l/j+ZUkLbKTiivMux6pfNXhn3UrGzBlQrpephC0lYVhZoks3N57o6MkJ6ZRkmd0aZpmqZp2pPniQjyLcvC8zx6em5x7do1amtr6exchmmaj0w2/begAMeAcMDPuYE5Uh+d5Nl9IazqNtx84YHvelIC7iP7S9cD7lVtKT70d9dTuN6Dxyp97oF373tKUq7+UvpsUSKEHeskEIsi5X2TWcvH5L4c8/m2Kp3r0U6SBAqF4kP7P3hNpWI4D177I/fpPrqt6Crg3rGUUhSKj36v9LXiA58p1Ocf96F7LD7UXq7r4T7mWj2l8Ar3tw2lNlEeV0fSfHj4E+TkMMHgYhBmudrQV7M6lq7Rr2mapmnal/UNDvIFIJDSo7e3l8OHP+KNN97g1q3b/Lt/91e0t7cRCoXKkzn/bUmliDuCVza1s7XpRyQC4EQqSkH110gA1fEgQoRK4/dfURD6bVVqQ8mimJ+Xt67k+bXtNNfGwPR9ZQG+pmmapmnan8M3MsgXwkAIwdjYCG+/9Q6/+MUv+eyzUwgheOWVl9i8eROO46CU+spGPR0BjZVRmqpilKo/frOCPgG6/OOfSUXYobKjESFEqbrQgm9A+36zXjtN0zRN076hvhFB/nzOvcBECcikp3nv3bf55f/4L5w9ew4BPP30Pl555WU2btxIbW01lmWhlFiIa+eDbiFKdd3Lny4s7DS/jfJWVa7VLh+7X2nP+wP5he0KEKo0Afdxx/28/R5z3Pv3W7hapcrl2kufzm9VorxNfbHj/v5zlicQC8rHnN9W3q7K+wpQ5VKWQGlOxH1BpkItBMGGYSzk/D/a7iDK1VrnC2je30bGA6v2PvrMvsh9PvZe7qsQq+bP/LjjCrXQcbvXWSrdiyHEY+6lvP1xbSsEYr70viitTyClLJ3vgev9455nqY3L79w3oK+haZqmado329ce5M+PxhuGwejYXS6fO8PlUx/z6eQIyUScTZs388MfvcaunTuoSKYoui7ZbB7Il/YHLMvAsR2KRZei5y4EWQDCEPgcByFgLpdnPkaaX/fI5ziYpkEul8eT9xaZUgJ8jo1lmuQKRTzXuy8YB8sy8fkcPNclXyg+cFzTMPH7bTwpyeUKD+wnysc1TZNcvoBXrnpTuljw+XwYhqCQLyzkzc8f1zKN0jk9j1y++MBxDdPA79h4UlEoFO8FrACGwO9zEMBcvoAq3+f89TiOjWlaFAoFvIfy3g3LIODz4boe+fvmH5TuU+CUj5udy5VWpL1vX8dxsG2T7FweWb6X+Ufj2BaOY1MoFCkU3ce3bdEjXyw8OHotRKn9LJPcXG6h/eanG/t9FoZpks8V8KR84HpM08Dn91F0PYoPzaUwTQPHcfCkJF8onfPB5+JgGgZzucJCbX9Valocxy6dM1/E87wH3iHHtnBsm1y+QLHoPvA8DdMg4HOQUjL30HtiGAZ+X6mU5/wzM0Rp0vm9eRM62tc0TdM07fG+9iBfCEE6neHdd9/l5z//JYcPHyGfy7Np82aqG1qxAjEu9YzS0j5GIpHkzYMf8fGJ89i2CZQqraxZvoSndm7i5OlLHD91Hk/KhRz1uupKXn1hD5Zl8o8/+y2TU7OYpomUkmgkxIv7d9C8qI7/+vqb9N8ZxjRLVVhs2+LlZ3fR2ljPWwePcuFqN6ZRqkZjCMHyZe28sG87l6518+4Hx8nl8xiGUaok09rIK8/sYuDuKL94832KRbeU+uFJYrEwL+zfTn1NFb966wOud/dhWaWJnT6fww9e3Et9TSW/eecw17p7S1F4uSO0pL2JV57Zxe3+Qf7ltwdKgagQeJ7Hovoavvf8HobHJnjjvSNksnkMoxROphJxfvTyfjwl+fVbHzI4PIZpGnhSEg4G2LdzE8sWt5Tu8/KN+0ayJcuXtfODl/Zx6Wo3//rbA+UR6VKw2VBbxcvP7KLouvz67Q8ZHpvAMk2kUoQDfp7fv51VnYv5p395g9v9gwv3YlkW2zetYtfmdRw6epIPPj6JbZdeRdeTrOps56Wnd3Hpeg/vffAJuXwBIQRKSSLhMC/u30F7SwP/7V/fpKdvENM0kFISDgV5ft82OloW8T9+9S7dtwawLKP844tg2eIWvvf8Hs5dvsGBDz8hVw6WDSFY2tHMS0/vpLv3Dm+8d4RsLr/wvP0+h++98BT1tVX87FfvMnB3BCi1QSQU4Lm9W2ltauA37xzm0rXu8q9MCss02L5pDTu3rOWdQ8c4efZyufMlQEBbSwOvPruHuyNj/Pefv7XwK4LnedTXVPGDl/bieh4/+/V7jE9MY5oGoLhy41bpPfxq/6lqmqZpmvYE+dqDfIBisUB3dw+XLl0mnU7j8/mpq2sgGE/S0z+GMC2mp2dR0uPu8BiXr/fgOA4AnudSVZGkkC8wPDbO1e7buK4sT0JV5AsF5nJ5HMvkZk8/I+NT5SDfIxmPMj2boei63Oob5EZPb6lijywF3DPTsxSLLgODI1y9cQvDMEFJDEOQjEcpui4TkzNc7+4lk53DME2UkvgcH/lCkZl0mus3b5MvuoBAeh4VyRizsxkKKZe+O0Ncud6DZZcWmwoG/KVtyQT9g0NcvXELygGhIQShoJ+i6zE9mylvAxC4rofnSXL5AtMzaa539zGTzpaDfKitriCbL42m3+q7Q3fvnYWKRbFomPWrOkv3eXeEKzdv30spUYp4PIrnSaZmZrly/RbCEAu56kXXZS6fI18o0nN7gL7BYSzLQkqPWCTMtpk0Ukl6B+4u3ItSCsdns6S1EU9Khscm7nueAtd1SSVKbTs5VWrb7Fx+IXUoEYsxk07juh69d+5y5UZP+Xkq4rEI0zOlbX0DpW2WZc2vDUYkHMT1PCanZrjW00d2LgeU0oXC4SCFoltqv55e0ul7zzMc9DMzm6EiVeR2/11u3upDlZ9nIhZh68aVFIsu/YNDXL5+C9u2QUls22JJezOeJxkaGefqzdv3UncQpV8y3CKz6fLzLHeuPK/061AuX6BQdOm+3c/d4XEs00QBE1MzmEKH+JqmaZqmfT6h7kuOLhSyX8tFKKXIZLKcPn2a/+P//E8cOfwRyi3S3NLC7j1P8dTevWz6/9m7z+a4rjzP899z7k1vkEDCW8IRBEDvvUQ5Siqj6qrqnu6u6pqe7Zkns72xT2Zi38BO7KPtiH2wsbERvbsTU9M13dXV5UulkiMl0YvegwRIEN4jAaTPe8/ZB5kAraSSijWCpPOJoAgk7s3rktDvnvs/5+zYQnVVnImpOebmE8hSnbJCUxaJUBmPkVhYIpFYLA53WHpvv89HXU0chGB4dBLHce6Xv9gWNdVxAn4/I2OTZLO5+2UsUlBbHScYCDA1M8fSUur+z4BIJERNVZzFZIrpmflieCv9PBQKUFtVSSafY2JiGq2WK9GLTwhqKivw+X2MT06TSmVW6r4tKamtqcLv9zI5PUsylSm24gNaCMLBALXVcTLZHKPjUyvFGgoI+H3UVVeSK+SZmJpDPVA24vF6qK+tRqOYmJwlm8sjS+vZtkVVvJxQMMjUzOxDx7kcjOtrqlhKphmbmKb08so2a6viaK0Zn5ohl88jEcX3tSxqqiqIRkLcG5kgm82Cvn9u47Ey4hVlzMwmmJl7+HpGIyFqq+IsJTNMzc6hHyj1sW2Lmqo4oaCf4bEpMpnsQ9ezuqp4LCPjU6TTGSRi5bMQiQSpra5iaSnF9MxcabjTYrYOh4LUVMVJZ7JMTs8+VAZkWZLa6koCPh+jE1Nks/dLxazScQYDfianZ1lcSq1cTykE5RVlxMvLmJ6eZ35x6YHrCaFAgLqaSrK5PCNjkw+V6/h8XuprKtEaRiemKOQdpBS4aP7rj3/DqXNX+I9/+6/55ksHi3MqmA65hmF8gXlsi/GpWf7u//qv9PXf4z/+7Q/YvW3D8gNgwzB+T15vcOXrVRHyl+XyDv/vP/wL/+VH/0zIcpifHmNqapp167p49Wuv8OILL9De3kYgEGB58qRiEFtpe14J4SvE/VZpcT++lpYurVf6JSJ45DeJeCB2PdTh9OHRbB5b9yPWW9nmgzuoH9yfB8dIv398j/+Mx37r6YduQR49FkGxo4J4bF1d6iy73GdW6OWtld5FPNCH4Um/acXKfx45lgc7Rd/vpvr4OXjyObp/LA/X+T/+vo9us7jeE68nPPJ5WNmD0stPvp6lbtbFCbUeOQ8fdyy6tD2xcmoePhY+8XquVDgh0AghcbXif/8//wuvv3Oc//C3P+C1l54xId8wjC88E/IN4+l4MOSvinKdZUKAx+Ojqr6ZP3n5GTqbKvnRj/6R11//Lf/pf/3f+PnPfsEPfvB9XnnlFerqaks18A8GJ/FwiHrovcXKMjz21cMh7wlrP/SjR5f66HXFYy8/tpR48v7wyM3Ax613/+fisVee+P2j2xSPfv34PolH1nuijziW+y8/vpcffY4ev15Pft9Htyme+LPHd/WjzvsnvO/9BZ68dx9xzT5pf558PR9ZVyx/wj/hOhiGYRiG8ZW3qkJ+kUa7ikAwwJ69e9mwYT1/+qff5Ve/+jVHjhzl7/7u/yCbzfE3f/NvCAaDq268esMwDMMwDMP4vK2+kL88znqpg2IsFuPFF59n587tHD9+gnPnztPW1lYcs90wDMMwDMMwjMesvpD/CK01juMQjUZ5+eXDPPPMQaSUeDyeR2YjNQzDMAzDMAwDvgAhf5nrFidp8vv9wP1ZRA3DMAzDMAzDeNgXJuQvW67BNwHfMAzDMAzDMJ7MFLYbhmEYhmEYxpeMCfmG8YVnnmoZhmEYhvGwL1y5jmF8nlbHkK2PTJyl9SrZL+OL5BPnbjAMwzC+0ExLvmF8QYjSRMBClP6YgGb8QcznxzAM48vMtOQbxu9Ba40Q4nPu8C0QQtPZ1sL+ZJraqjjKdEQ3PqPlz7RhGIbx5WRCvmH8HlZDGFouyXnuwA727txEJBw0c0UYn9lq+EwbhmEYfzwm5BvGKlUsmRalcF9sddUIIuEwZWHNo/Fea42UxWW0ur/OZ9q2KFX+K728Ix+5rNYaWaohKrYOF5fXWqPRpqzIMAzDMD4HJuQbxio1k3HILMxSHfVj+6NMzC0RUCnK4hVgeR9bXiOYSqQhn6KqPIrwBHhSJ93i3/dvIkAjtAZZ7KKjgJlEGtvJUF4eBul7bP0HKQQziQwivYC/Isb8bIqoz6WsMo7A+sjjW74B+ahOw2LlBmd1EoAWongyn+b7Lp8XeOrvbRiGYXx1mI63hrEaCcnJkQz/9RevMz90mbRS/NPRm5x58xeo7BwPtqwLisFwKJHjh785wbG332A+McX8Qoq5RJL5hRSJxRSLC2mcQh6ti08BBhfzTIzcRhdy5FxILKVJLKSYWczwuzP9vPf2eyRmx0gsZkgkUmTTGUAhS30ThBBYUuBqwZFLw7zzjz9nYWmaM9dG+O1bx5gc7MO21PIwLkAxs2ogW3BJLGZIJlNo13noVkRrTcHVZLN5lOvy6I3KY6dKPL3Sk+Vz+XFWjsFR5HM5tFZPJYwXj1uRWMywuJTGLeTMyEmGYRjGZ2Za8g1jtdCgxf34nnU0qUwW5eYByGQLFLLZYqhkuTVeI6RgKlXgp8eu8+Ybb9NbCQPzeZT2rITPZN4hmknzjRc20bVrD47y8v7AHGMn3uR7hzYy6u/i+PvHcRZncW0PA0OzeDNz9I2NoT0RpOOwq6uGTXt2oK0AyinugxCQcWFubhE9t4DXTbN5QyP9dwQziRyB2Tn8/jBevxeQSAEZy8Ov3u/j2skPaK+1+fZLuwk19ECpf4GWknP9U9y7fIWXdzdRsWYtbuHxoLvc0u0o0G4e27YR4rO3W2itcTW4joPHIz/yvYQAB8lbN8axx85x+MBOZLD6sfKpT0sJwfXpJK//7F3s/ASv7W5i3fbnUNbjT2QMwzAM45OYkG8Yq4AAkq5manKGck+BitraldcfWoji0Jk5BZNjs8QCDnOE+O3xqwxeOEVXbZS2phi7tnZSVtlEXlgMDs/x5rk+yqwJolEvWth4LXi+vZxfjO/g3bOXOfRMjNbWVpambFxLMr3g4rdz1FdXoHwxAsKhpqGG04MZbl07i0ovIKQABI7S3Lw3C2NT5H/xAZYnClpzW0D0wz727+ygbWMviAAArhTcHJrGnx6ip/NZPKFyhAYpBQgJwmJkNsPlawMc6gkiESihkVKy/PBRaY3QiryG0zcnKEtcZdOeZ1FYCErLiuL+aXSxg/LHtYhrjYPk4uA8+f7r7HuhC6xqhHJL+2WVtqvQSqGE5MZEEu+tmxze3YMQ1VhCoIVEuQoo9lMQUpYunMYt7UPxdVG8SVveR61RyqUq7KVtXQvHPxhhfKCPrq3PgP30S4IMwzCMLz8T8g1jFZBSsFDQvHGqn051lxe/9RJC+J+4rADGUi6/e+MU+7ptbugmMoPX+F/+fDuJ6HreOnaOKxdusW6DxXg+wJ3L19kUg++88h0qGjpxtECgaC73871DWxkaqyEUsymIBZLJDK4lyeVykHdIZrK4hTSWp0DIo3ihq4He5mpmhodZ2x7HF4iRduHH717HPZPhr773EnagCa0VBccF5eL3eVZCcnH/BbYl2Lgmxtatm5HBOFopkjmHfC6HZVloJ18K9UUFF7LpDE6hgBQQ8Fl4vH6m0y6/PXKDjYVzdGzcQiAUw0WSyuQo5HIIND6PjdfnLbbMP6EUZzk+z6YL/ObsHcpvnGLT9krCsQqUEKSzeXLZPLbQBAIeLNuLoNiFQZT20QVSmTyWW8Dn9yGkJOcoMtkMuA4+j8Tr9yOEJFNwwSkgpCRbKIBSBH02ttdHY8TP7h3ruTUwilL9T+nTZRiGYXwVmZBvGKuAUpqqoEVNQx03PrzN5sF7WLKTJ41qk0fQN7aAm5+mvn4TUX8dz7Udxo1U4ExMUR2LcvZigb7JU8zPK7prFb27dpHI+wikM3j8IaaTeUbHJgmQo64izHzKQ0+1F7tuG1nLomDfIZzwcXBnLzpQg+O6uH6BUDmmUw5vvHkB3/4Y3bsOYds+stJiOJNCLc7ii7WTyLpc6RukzJmme30PwhNDPzLcp9KgVfHvobkcR06eZW7oNhVlAUbnHER+CSEli47m1KU73LpxjVx6iXy+QGeVl30Hd3F9zkd/33WS7gTlHxzjwIHdXJuxuXj2PJnEFNmCoiki2L+jm8aODWD7HmsVl6JYKnN7LMGNq9cJjwzz4fHT7Nkfpm/Jz9mz51mcHscjNRvWxNi2dSv+yhag+JxAWpL+mRTvvnuaDZEUO547wKKOcvxiH32XLyKdLPXlQQ5u76a+cx3H7yQZvfABwbCPmYU0ycQSG2s97D2wn0h1C8UGf9NybxiGYfxhTMg3jFVAAz4Ba9tquHU5St/AMLqpvphAS5ZHskxkCpy+NM7GCPir6rgzmiWfTDDfP8Lo8ARhr+Cvv7udqpp6EgUf1/rvcG5glNDgHE1VcYJlEVzL5uytGRbGBtjfEWShfD13rvfhFNI4SpNO50moAj9/9xLSsrGkRW9LhJqyHbTV1tK4eQvvnH6bqpo40dbtuEJwbyrByO0B1jZv4erwHEN37rKvM4L0+p4cWotF9cykHf756DVS14+zZVMb8zLOnYtXaEhPgbTom1zkxLEzNIWW6Ont4epEjl++d4qacI6K3heoqIrTVJhgTUsT42mLd05eJTR9nfUbe5lwgpw6dh6VPMl3amsJVDSh3EdHHCqe18qwj6qqKsqSUepbGhlYlPzid8cIzt9gw5YNjKS9/PzENQrpJfa9+LWVIU1HFvK8c/ocmTuXqf/aTnJWkPcuDXP8d+/QWyMoX7uOy/1zpN88zrf8kqG5GG8cu8K2BsHmbZu57Qnzz8dOUx6U7Hy5Go2NqcE3DMMw/lAm5BvGaqEVzfEQZdX13B6+hh2aRMpH4p6Akfk0Y2cv8OdfqyJjl3Nj5BaJu5fpqvLw7LZNzDsehmdG0YwTrWxgw5o6nJZqxqeWGBsZJ5haYv/6Znq+eYB/ei9KpHCZ3fu6eT8UYfjyh5SVR5HSCwK0UixlC6wtc9m8Ywv+8npCQvLyM938PD3N0uIMIuuQml8kWBDcnEii+/q4fXuSTU0+2tZvIi/8CKU+olRGcHs6zc2zZ/mfDzWz5ZVvkyh4KYg4I++/hXJdYh7JNw9uYG1rFf5YFZXTWS7dmmZhepit5QHqG1vpzU/Q07Oe4SU41FNNT93XidZ2MpHK0T9cYHTkMoVMkuBHhGehoTYeobGlmap0P83ruvnZ+TzW9AB/9Y1tNGx5gZRr8X97G7h45XV61t/BIsTQfI6//5fjRBOT/OD7z1PTsZPbiQKnzl9jQ3mav/r+X2BHW6jqSPDTH/4znVcuY5dto9ry87UDa9m4/0U2pzxcnPMyMHKJXfkkQpT/cT5fhmEYxleKCfmGsUooDVEvtLWvoX/mLnpmBqFclkt2BOBouHpnko3BCRrX7SEcCPL1fb2cidpMDw4we3OQu5NJpu720dVSTqxmCrQg44KzMM3Lu9to3/ISWlssZQt4PDa2slDS4urQLDdOnKKzpxOsEMUIDoMzKeyyOTZtaAfRiKug1ufyzUM7mF+Y4YNzN0iM3KW7KsqCt4p33zrH5p4wvet2U5Ch4jE8IeAvjwY/l8gQcRapb+1GKQ8hW7OmoYqF6mqEVjRWhrmRqObtC0MsLV5iYnGRmdEBRJ23NGGXwtUK5bpUh4Nk6ho50X+XhbPvMJ9aYrjvDt3+PE8qfXpQcfKuYufYTM5lYT5JbbmXquYmXCXxWZqO1jquXPSQTCwiZIiRsQT+qSQbyjz4A14UkEjmGZ2eJ+os8Isjl3H1DaaymtnFGWZmAzjeFBW2h1CkHIWFZUvKKqJk5h1wnaf3gTIMwzC+0kzIN4xVQgO2VqxfEyesNnJtJodWffejqRCkNUzcm+DFTZUEK5pQyiVkw8a2epzaMuaVxczJ6zR31LJ3/1bsaB1CKSYz8Pa77zM/O4Xjukgh0dwvVRFC4LMkjfEo67ta0FYZxRlzwR1dxJPJUVoUaUmWcg5Dswlmh4fwKZfG2jiRdJTmNc2cnOwnbAl8kTLc0my9Hx2wBZYtKWiBk8tjWxKtRbEuvaBwhORE3yTvv/4uZb408Vg58UiQcCSKFjm0Lt4cSSkQ0uL6RJJfv3GU4MIQsbp6YkEfZbEytJNYmZlX2BZK69IoOOrhfdPFWYItSyClxHEU2nGwpEBJQbbgoiiOuKMUtFf6eeHwft48Ncl7vzvCy/+qHsuOIIUkmxMspXI4ysFSmk3tdTS0VDJX8K48T9ClGynLEh9zjgzDMAzj0zMh3zBWCQG4CuojFnWbuhm/nmDkykmWC3Y0Gi/w6o52OpoqEXYQBL7HM/4AACAASURBVPhtQUtNnKyu5uqHA/hy8+zb1UVXdw/aCiKFxruk8cSieP0g9P1RZqQAS0qSaYVTyBEJ2MTLI6WQrxBCEF4EWSj+qhBScnNsgTu3+1FOko1N5cQa2pn54C76zlW2rI2T81Rw/MPjeO2T9O7eiyP8aOU+NsnUcvRvrAohqps5e+4WkaZeJlWEcxdvkh0bJUsP56+PoKYGeeU7u6ju3M6H9xbInRgkl1kErdAeSXLJJZdPcW1okTvXr/I/vdhMy+5nGUwoTl4/Qi4zgcYlmXeYuDdDRZlFOBZDyAdG/RFgWZJ0IYflZGioj3HyQ8G5MxfZdKiB8YzN2TMXqA8UKKuuRM0L6mrKeGZjJzPeTn774x/Tfu4EVVsPs66lkbLRMV7Y3kqwpp3LQ0vcOHeGcDiElfLfn1HrgXNh6vANwzCMp8mEfMNYJVZmNxWAsNAIlNa4qvTH1Xi1pruzHk+kAaVchFY4SPrH5jl/6TqJ8VF2dlTQsraXgvbi5vNYUjA2lya7kCAYrAdkqSOsYKkAJ26M0RY4Qza9wFIqz72RKbCzpYm2JLPTS1S6OVzg9OAcQ9cv0xiWdPW2UlXbSMqxcCmO5R72CHatqyc528uRC5fJqBP0bt6MNxh78lDvWtNe7uel53dx4ehbDP7oVxT8EcYHJqj3uXgFtLdUcuxyOa8fu0HsVoIlx0HoPItLDl6Vp6W1ivPvQPnbv6O2vod4QytvXhqhevZtMtpDNj2DY7m4+TR359L85P85wiv7w2x98RmEiKx0Cg7Ykrb6Mk6cgpPvHKd7837GNmzhjavnOD/5CxbyFsGFafbt6iVa3YruGy0+HdCavd1NXOneyRvHT/H91lae29nNkbcm+PEbJwnE+pmaT1EjFolGmhHZ4iRl+sF7nuVvTGO+YRiG8ZSYkG8YnzMBZLXkzK0RLpw6jcqmEdLiznyOmeExfvh6Cu+JKW4PTDLnTHHnh79BeELYGurLgoSaahjtH6epzsfufT00tqzB9QZ45/IIl8+dQ+SSLOYL7Ki3qGlsR6GxgIKruDWeJDq3yO5QnrAvQG11hJcObsaxa0inMzj5PIv+WbyjEwD4hWBrZz3N9XUob5CZ+TSzmRzjE+N0RBXgIeaRHN6zjlNlEY6dO4ctzrF++w6wow8ftxAgBCGP5PmNjdSFX2Zy6B4Rn+LAxi68wkO8popnwpVUysPMTIwStF0aa2Ns27KdaHaOUCDCS1sqabBfosxaZF1rDZUV9dztv41P56mJR9mxbSMqm8IfixO2vZTXRMFVaPXwXYdPag6uraLsG4cpdxdoiIX4kxe2cau1hvmpcTqkpqNpE43NrUhPmOfXViGrnkf74tT5PHzva9sZvxPG542wtT5O7BuHuHtnkEImTU+LZF1rLfH6ZnZFCqz7znPE66vQ2iJoab61uZHy3PNobxTh8NhTD8MwDMP4tEzIN4zPmQYsoWmJR/Bt7ka7BQSC3YDWW5FCoIF920GUSmi0EEgNEZ8HbzREe2UlDfUVBMLlCGmhlKK9OkJ48zpwcnhsQWdDOYHymuIMsAiyWtET8fDsay/Q3LuD4dwwMW8b1dU1pCjn2p157ty6yXw6webOZqKxKrp9ETwyAtJmMJHh2NGLzM6NY2VTbNm7HssTRWtFxGexZ0MzLeUBYt48WngfaqTWaLIFh2w2Q9BfIGx72La2EaetFonGsi2ULo5DH5QWu9evobCuCYHCa1toYaFUC1IIGgKC2l3rUcrFY1usL7foaqhAKxePLRGWhVIaW0AirahtCxFv9CKk96ECGQFUh70c2tENrsKyJEHLIr6xA6ewBkuA7bGLVfTaZWN9GdRvBCGQKNbWhGmv3IoszXa7rrGK9ro4ynGwLYll26Chs8oDVRuQpdluvVKzszWOoIKCEKQzKZxCno+YC80wDMMwfi8m5BvGp/DHmqTIQtNcGaGlqnvlteVx8Zc3KShWdUgEQghcrdAaRKnEp9gJVYPrIoE1VRFaa6LL71QaPYZiqQiauM/mr17eSDRooSwfz21tQ7qNODqApQts7qpmXVMYIRQV0QCWzw9CoLQA5VIT9vDi/vW4ThdeWxCLBtHCi9YaV0NQQuea6pUyJF3q1KqBQkHz5vkJcv7Xee3wAUL1vQjlFAM8xRsfuXxMqnhj4/VYQLHTrNAKKUtlR0pjWRLLWv5e4bUlGrl80YqBWgo8qsC61gaqG6IIy/PYBF0AtpQgJVqDqxRSgM9jo4Hi4sV1ipPdytKxAehix2Hul17ZUiC8ntK6pfUEUOr4vHxxLQFKWFyfTPKTf3mbuzcv8vye2Mr+/zE+d+ZpgfF5EEKYyd4M478TE/IN4/f0x/4fk/6EMCeEQCvNyMQ0iYUl6murKI9Fi8H+I+aaKpakPOmHGo8EbzRQbDHXinDAC8KHUhpLaCqifogGH9g3tTKBFYDfEgQqy3joJkLfD83F7T86y63G6xT41r61jDX8KfGIxA6UF/dTF1v4H1z/wXPz6LE9WOT/6M/VY+ex2K+hPGgTW9uCJYuj+DzJY9t6ZL8efP3Rc/v4uo+v+ei+339NURGw2L+xjYO9VaxbU46W3j/a5275pssw/ntRSpHOZPF6Pfi8nif30zEM46kxId8wvmBef+cYR0+c499+/094Yf9OXKU+UxDU+uFQWrxZeOB7pQH3E9Z/vCX8k9jKZWNbNetbq4qt7FKC/ujtPDWa0hCa9qpsSRRAfcRH7Z71iNKwpmbUHePLZHEpzd//w8+IV5RxYPcWWhrr8Ho8gPmUG8YfwyoN+aZ1yVh9Pu9Wz+XtJxJLjI5PkUlnEUJ87vv1WdnFepfPJXCv5nNm25/feTGMPx5BwXW5drOf67cGOXb6Aof27+TAzs001tdgWdYnv4VhGJ/Kqgz5WmscxyWTyWH+3RtGkVgZUrPY6l1wHNLZXKnW2wRCwzBWM0Eul8MtlexcvNJH/91hPjh1nv07N/PM3m1Yllxe1DCMp2D1hXwBuXyBS9f78dj2E2thDeOrSAjQCgYGRykUHM5evE4uV1gJ/YZhGKuWgHQqy1xisRjmhWBxKc3ps1e4eLWP906eZ8eWXhKLSybkG8ZTsvpCPoJcPs+Z81e4euPW570zhrHqLCUzZHN5Pjh9gQ8vXse04huG8UWglGZhMYmUpRm3pSgO55vNc/n6bSamZsgXHKLhEMIkfcP4g62+kK81fp+XLRu62bGlpzg8oGEYpaZ8zVvvnebKzX4O7d3Oxt5OlPsRI+gYhmGsFkKQTKX5ya/fYXhsEkmxNNeyLeKRCBt7O9mwroMzF64xNTNnnuIbxlOw+kI+4PN62NzbyWuHn8M2NfmGUSQEGsWde6PcHLjHji29fO3FgyjlmoxvGMbqJmB6NsG7xz7kzuAofr+XeHmM3u52Du7awsE9W9FaMzA4zNTM3Oe9t4bxpbAqQz4AAixbIoRJL4YBy5PISFh+kC3AsgTLEzIZhmGsZkIIpJTU1cbZ3NPF3p0b2bV1Aw111Xg8HiamposDCZhfZ4bxVKzSkL9ci2f+pRvGg/SjXz9hQibDMIzVyOu12b11A6++sI+9OzbR0lgHGhzXRZdm8Da9bg3j6VmlId+EFsMwDMP4MomEgnzvu6/g8/nweT04jsNyqDfR3jCevlUa8g3DMAzD+DKxLIuyaBilNEoVW+5X8bx0hvGFZ0K+YRiGYRh/dFprXPf+k/rVPPO0YXwZyM97BwzDMAzDMAzDeLpMyDcMwzAMwzCMLxkT8g3DMAzDWJ3MOByG8ZmZmnzDMAzDMFYJjRBgSYll/QGzYWqN0gqltKn9N76yTMg3DMMwDGN1EJKC4zI5M8fQyDgAn2WuP2kJyiJhggH/U95Bw/jiMCHfMAzDMIxVQQrBXGKB//azN/jtu8c/03topQkGAhzcs4VD+7YTCYee8l4axheDCfmGYRiGYawKQgoKjsPI2CTTM/PApyvLF4DSmnQ6y8j4JPU1VWzb1I0UwpT3G185JuQbhmEYhrEquI5LTWWcf/f9b7F5fdenXl8IQT5f4O9/9HMuXOkjlckCpVm3TMo3vmJMyDcMwzAMY9WwbYuqeDmN9TWfel0hBNlcnkg4hJTisxX0G8aXhBlC0zAMwzCM1UPfb3T/zAPjaG1a7o2vPBPyDcMwDMP4EimlezNypvEVZ0K+YRiGYRjGH6D4xOHxu4qv0n2GeOC/n7isEAjxeASVQjz1eQ3ER7znH3P+BPHA+xe/Xv7qY9b5PZb5tExNvmEYhmEYxifQgCU0rhYIrVdqibTWuG5xEi8pBQ8GNY1GCoHSxVelZfFJQc5V7heqL0HxVGgcJUA7WNZyeH/CcWrQtmRsbAGvWiJeU4kQXhCatAMjk3OUizQ1dbUo8YdHVK1BKRd4+Nosvy6EKL4iBKCRQiKkfGTfV4rHnrQFXKXQSq+UlmlAKQ1aISUoBEpppACBeKwGTQNSgKs0WrlIKZ9a4Dch3zAMwzAM42MoDbdnU8QyQ9TUt4P0rvxsNuVw984IreE8VR0daGUj0BQUXB2eI65naWpsJif8LMwu4Lo5YDn0y1LgVAD4PZJoOIj0+D7TfgpB6aZCoLX6g4/7o1hSlG5YioF5Nl3gwq17bCwvUNvahdbioWysNWilEFIgpIcrwwvogWM8/7VDhMobcJRmciHDz49d49nYFPUNr6K0F/jsxyAEJHKau7fuUhPM09DegcaLFJrZvOLelQE6W0OEKmoAC61hIVcgnUwitUIjsVB4fTZ5JSjk8sUnDVJQvFyKoNciHAoiLA8gEAIcBbfG5slNDrG5p4kpt4zBvgFaYpq6tk40NssnR5f2c8ER9F/vp61CU9nciZD2Y+fPdV30p7z5MyHfMAzDMAzjY2jg5mSK8dMn+c4zWWrWbkW5GiEEU0t53jt1k0BjkpquNlxVbBV2gLOD8yRuHONrm+sJt+/g7PlhUktjCAEFrZmcWqLC5xAqK8fV0FTpZ/eWbgLljSshXQBSSpTm44O7gFTOZXZugajHIVZRgRYennYP5IKC/skEs2MjxZZnIbk6leaNdz7gLzZHqJvMPLRJpTUhr6CsIsZ8WlFIphieSjB08R4idJKKulbqyr1MFMpYHBulcV0lwo5ia9BI1GcItwASwehinvdPX+G5FkVLVweOK7GEYjoPJz64Sm2omnB5JVpYuAhuTaW4dOEKsxNjePIpulqrscLlDE7M4XMyLOkAqcQcNWUBslaAqJXmtWc2E6ldiy49FSgozbk70yTOn2Bj2yHGMkHe/eASL7YrGlrXoGTxmmgNloCUEvzixD3O/+ZnHNoUp3ptmmI1ffEpkLAk0YBFc02cYFkl+lO08JuQbxiGYRiG8TGkgM0NMQaiazly9BKvVVTgr2hmpRJdlhYq0YBXaJ7rbeA3C91c77/C/sY2ejtryeejCAFzOYdrAxfoiuZZu74DV0uiARvbH0E/kJLzCiam5yn3FwiHY/ARZSxCCMaSLkdOXmVb2RI7nnkG1/Y+1dIfQbH8ZHIxw717oyjXYSpZ4NrV26wLJknKZvrvjPBgyldaUx6Q1KIZnS+wODWFjUtVSxsjs3kShRHsnI++VIbRvhucqmvn8vwx8rk8dRU+1ne1EIxWf6pwC+AKmJpbwsmmCJVVspR2EDpDyGsV6+TRCHm/fEaiaSjzk2xr4vbYLPHFQTrat3JtxsJd6qO3q5kLuRqGB++xa22MRKSdGxc/JJ+cQyuXvHbxWrL4YRDF9xX6wX0uvuZq0K6LJSUpDUfODvKTH/2W4MItxhs2kfaPoXTxhmE+69B/e5RWX5rv/cWzhCuqcd3f/3qakG8YhmEYhvEEGrAAy2PTXhXgmy/t4/w7GdKzs/hjjWgpQYDPL/AHbLS2QGs0Gq8lWVdfQeXXDpIYbyEeD1ITKiebzBEKeZhzbc5fnqanbZHe3nUIy0YpjeMq0AqtNR5LMJSxePuds7y42U+0Zw9KSSQKy2NDqfTDVQ5oTcbRjM0u0MU8QissSyKFjVIKx3GQojgPQfFGQaCUg+M6CK3x2BZIG7RavmtBKRfHLazEa6WLNy9bmuOsr91LRsE/vX+bteE+/v1fv4q/YRtaPfy0Ie9qtOvg80iaC5IjZ67SG14gemgP196/y9YtEbLRei798AgtoSzBeDXj8xluXb3Osz1R7N41n/q6CSCjBVOzC4yOTfO7c0vI2xmE4/Da3lZkTTdCSAqOg9QOrvQjtUNDzI830MrV4XnqAnN0retgpC9L4q6PcDhA0AoSDPiJBP04oQBenx9pWYwsZDl9+iIvrK/E09jzhP0Rxf4ZEq6OZ0kNnqW+sYnj9xLcffcU3z5Yyfzic+iFFBvb41TWtTC+qDh67jpxT4atPe1EqptRn7J6yYR8wzAMwzCMJxDAkgO3bt9jcWaSaNjDwV3thMuq0ciVEWXyBU0uV0BoB4SFJQSD81nu3u0jkE3RvqYajz/M3QWHc79+j2f21UFDD67r4joKrR0K+YdbaC0pWMorjl8f4+SHF4lk/YTCVVQ0tJPWktu3RkhMTVARsGhrqSUcr0EIsKVECgukYGIxz+TQPepjNhXVteTw0jc0w9TYGAGRZ21LFdHKegpIhqYWycxPEgyHGZ5cJKhStDVVE60s1qzD/YmDw34POuDj+r0FPjh5nm69wJV7i7gTVyhVmgPFTsktNRFamxvI2WEu9g8xPXiN2PYWKsoiTFl+jl+4RaI8wfzwDbY31PLys1v5cMxHLjnDlu5a/GX1uAXnU103KQVzSw4Lc5Ps6q6grWcDU8rLsfcuMTs2hL+mg4ms5h9/d55nx2bYevBFpC9S6jRb7EirlUYohaM0d6ZTOOduMOhMMDk6wYeXCyz4U+TnxkGvwREW5wcSNLujrK9b89jIQcuda3NCcunmKL6hPqKxKHYuxavPdrF571aG5yX/+fWL/OefvUtTXTWDc5otlYrv/NlB6pvXYfvDK303HjzHH8eEfMMwDMMwjCcQgKME86kslwcnSQ/c5t//5R68zV1opxg8M47LwHyayeA80snhigACRa6gGJpPc+fEeQ5vjrHz8IskC0Hu9o+ya6Mffykx5woOuVwOR9nYlsCyi63sQkDW0YxNzjKzuMi94QUWZyYolNfz06N9jF//kFgQFnOCrpjN11/dj7SbQQhsSzKTUfzk3QvIkQt84/nNFGrqOXJxmKOvv0EokMK1wtSfK/Cnh3fjb97Kkb5xPvz1j+ltrSSpAsxMJ1hf7+WbrzxLrG4tGgtdKpoRAgYX8/zjz4/B6AXWPrOBuZwfN7MApWUcLC7emaYjkKDuGwe4nG9m4NY1Dq2vp2HtRiyPl73723n7yDR67C47drQzMbJAbiHBUq4CLEVZeQytP+Vo7xq0FIzMpRi5dZvdG4Ns37OVm0kvfVeH8Hrd0pMKTUZ4+eWpfmaH5jn43a9zLxvh6IkPuXj+KgOpcYK/eZOst5yOmhB7etsIZerwphPs3NJMItrFxdMOGkFV2ENzTzeXb79F58I4TxgdFFvCTFIxNTrI1vIQTbVx6mqbwLb52alxlsZuU6ZSxJvq8frDlOsck/MLnLg4RPdchvbudXj80eLTGWn9XqfChHzDMAzDMIwnUGgiNuzubkaEI7x1dYR8JlNs5aU49ksinWd8OsFSLIGbTUOoAlc5rKnw49m5gcnbk2Qz01AastHjsRCy+BQgkXb48bs3eW9gkahHsm99I51bdyLsIEppYn7Jxq4Wxutq2bM1Qm17N7+8Oc+NI7/jX73URVP3dvrnXT44cpojv3mLlhe+hbAsJjMugx9cITlwg1f2dlDb1s3lyRxH3jrGzvoCm/cfImnF+cXRK7zxxnG+8ZdVJJJ5FibH6d3TTMvWZzh1L8X1o28zcOkS26qawRtBuA5CCsYz8NNfn+LOhZM0+AWdzbX4G+rRToFih1HISYtrk3nSqUmcfI6miMS3rZez10cJ3LlNc9cmRifn2F3j0LDuEMMpeHfpGPdGJ5hIacK5LP5orDgc5acgJCxkFZcHRxkbHiZRvwblLDEyaVMmF4hVtbIg/VR5Bc89s54Jq4YjPzlD4ZfvsvXwftqb67k7Mk3FQpKW5kbuJv24k+PknQIFN4+rXJy8QyGfL7asawh6JFt6m/jllRAjfZcQat3D+wQoaXFrZB5n9i7169YwsCg5e+IY4UKG9t5mPOvWEPQIYpEwZVVxsgWb0eEpljILXJuc451/fJPWqJeD+zdT2bTcwfvjmZBvGIZhGIbxBAKBlBAOeIlEwti2FyFkcShIDXmlWVpI06xyeL0RkoklwlGNq8BnCyKhIL5gAGlZxfZtcT+waiDkk6zf0EjHtt3YUlIVCxaH59TF+nePFMSiYSKBIFXxGDoaY+DGeXaVp9m2YwehyjXEG+DuRIbLH7xBTWKMjAs/PXabqHWbPz3UwYYtm1C+ci7f7Uck+ul9djuV1Q2U4WFNZwtXf3ueg6O3sK0aaiuDbOppp7J1LZlwioGL15mdX8R1cljeCAjBQl7x+qk+wnN3eO2b+zn2xmUu3R7DP+8F5ZTOGxSEZHx4isqyPAhBXcRDJFjP2f4M/3L0KLXXhpi4neJ7rzZRX1dLdiaPDMZ591QfaTnN/ho/IhxHq09XqqMRTCxkyM+O0dZSwbhrkZwZZWg4hE84RMuqWBA2loDKsJeOjjbKgpWM9l0mptNs7O7k+miCuul5eru7GLldYGDqNNn0De45E0yNTnDam2fRn8RNjANrsBGsrfRRUd3GzUvncLsaHv4cCUgVBPeGxqjxF6irq8OtiDOzdi3Dt/qZnpzH8hcYX3KY6zvB+s31WP5KlOtQcBURj2Ld9k6qKqoJlZf/3rX5JuQbhmEYhmF8BE1xhBjXVaWZnyCbd1manceO+JmanWBXl5e58BqGRsfZ0LgGhef+Oq5CIxhLZMg7uYdGu/Hakrb6GL1da3C1/cBQkXql/l1rjdYapRU5rXEWk7TUePD4YyjXxSst4hVRhrwBnHyGfMbB5zpYkRAjY/OkF+bw+OqYS2a4O7fA3//iQzyhW2hgJpUjMD/L0uwCiEpsj43H60VpjU8K7FAQx0qCdu+fEKXprPTS+doBbmTDDJ0b5jvP9xBu3YNWeYoDX0JWWOhj/YjB02i3WOgTkJo/P9DGP1kFfvwP/42/7rKpbn8J1xVURjw0trbwsx8eY3tslJ6Xv4kWodK2f/+RdbSGcr/k8OY2FnvXcPvyAJevTpCf13RUlxEsi6MLxXPrugqv0GzuiNPbfACvLUjmS7PkIrAt6KqLUnt4P/U1Zbw3Jril0hzetwZf4wYmxqfwl0dRWhOVmg0bOuj7VR+B1BSCB8YYEoL+uRyTeoD9TRHKKusg4KetuZF8Kk1+aQ4nnefU7QnWZO+RytQjC4sISzIynyU1Mcq2l7ppam+h4PDQ6Esfx4R8wzAMwzCMT7A8fOTtqSRnzx9jS0USu6eH3PggL+7s5mahntGpK3TMT+ApayquIyAvBB+OLND3+ju0rmtl5QeUQnzp/Z80Fnwx6IviMhp8AuxYmME7DtsyCTzBGDlHMz27gFXIID0BwoE0B/d14Fm7nbd/9wEtp8+w5+VaKiJBmirjvLxvLbH6TpS2mE3m8KRnia1pRd/MlHbkwXj68AytWmvCXsmudWsQtgV35sjkXEYnE4R8E6WQXxzlPScs5mdnibn5lfewhEB6LCxXE/WGODWbZP2Ni3RvK8drBymPhVCOF08+jTccKd0QiZW/H+pu+lG5X2sqgh4qW5rJacnYIrxx7iJN1gxt+7ci/RH0g52cS+PV235P8ft8cWSjdMFlaGKWW+OKGzfuIvNL3JkvMHPvLj/LzRGMTxB2NHVWB02xOEL62dVRScufvcqJwTFg6KFdzKSyNFWEaG1tQfjDuK5LS7mP+p29CK25MrZI5e0pXntuK2u2HABhI6Tk6ugiZ97O4TjKTIZlGIZhGIbxtAkJE0mHN45eoKeyltju/fz2ZD+74jk6ujeRmfdxrP8WdVcusX5vJcIKgqsYzLvMXLnKf/juLqzmbhB3imO0F9/1Y9uotQavxyYtBZNTs7QuLrK2t4lfn/TSdPx91u0UXJpwuH32DPsaJMGKeqSYoyLsY9OGFs4OO7x37i062i+zqXUDN2OtLExN09PTTdKu5EjfNUJD59iysTSCjn7wtoPi1w9+KwQSkJa1Mhft6HyOX31wFU/ZDCgXLYoh30VwbWie3Q0O0gIhNFlX8Kuzd8kNneM//Y/P808DNr8+8z4daxq5mm/ivTeOUl2muOcLc+rdI+z/eiUyUImlXYYW8gzfvsPa+iDx2gY0T+58KkTxrAoEQY+FFY3Rd2OSzoYk1bU1ID1A4aHlFcUZeRGCiUSau7fu4Z8ap+zMeda3r2HPt59FS5u3+ua4dUzz7b0tNKzbitI2Aa+FKJVYlflt7NY6rNGl0ptTukfRbGkIsv3w81i+IFoVO/7alsT2WNxZKHD6g9M8W7lE58bn8YZCACjLwpIpYh7wBfylmyUzTr5hGIZhGMZToTWksi4qvcC2jWXsfPUwv700TmzhFlsO7EN7wrTHLfqa2jl+80PitX3Uta9nKSuoi8Brf3KA5vW7uZHRpHJZZhNJvNNzpNMp5pbSTE7P42oLj4RwyI/HF1jZbkuZoLFrLUcvHKMseJL9u/eQ+pNv8fbFM7zf9zNcJdnVGOHQi19n3FdB2O/B8vqJei1e3dfLz0cGuHDlGvte7uTwKwf54K13ufqTd1B4iYkCzx3Ygb+yk6D3HtFIFGEVZ2S1JIQCfnyBwMpoNI+eE6U17dUB/u23txJq3rlS1iOAvJD85Pht7KEzaAWLCo4ev8nUpVO8uK+Dtq71/A/NFoMjZZyayXP29OscrEqy6c+/z/kpl+NHf4P/6Ftse+YwnnAFF4YWuPS7t6l5dSOV9fVo/fGBVwF3JpOMXLrKzrVR7HCcW33DdHQFkTJCp9AEtAAAIABJREFUIORD2B60Bi00jgtnhxJcP3eWA2s8VG15ns7ORjzBGJlMAaTCKeRxHJdcwSGTKaDQuIUcDgVcp4AQkHZhaWmBVCbH1NwiiWyCdCZDMqNJJFOolIvQLn6vzZKw+fDcXW7097G3AXbsegUZrmRuKYuTTZPRkrvD43h8ecJlZahPOOZHmZBvGIZhGIbxCaKW4Lt717LxhV7eGiiQGzrPd5/bQFljN66rCUiX/ZtbeX0hxW/fucIrQlC7poe/eWk70m/x+pu3uH3nfZL5BX7+/i3EmTHm5pK8Na84NvArlNY0Ri1eOrCJuq5NKFeggApL8b0XtpLY1ExFUFIejvLnz1Yy3ttEaiFBxCeoqSrHF4riKSj+7IVthG2Fi5/eKpv4X76E31ki6I+wr8fP2rrXSMzPYymHqliA8ngcJTx8fXMzTvu/xldZhltwqPELvvv8NvyygPBGn1gqIhF4bEHY7yUSDaPdPMmsw8TYDLOZNJmpEdpCFr5QlEvjaTKzg3zz0EYaunrQ0kdNWJCua+KX7xznQEeELdsPYwcrqahRxPzfYvTaJVqH7lLeXc785BztlRbx6hq0sD92Jl+N4PZkknfev0C7NcmBvzjAiFPB6ffPM9B3lNruNtasq2EsaTN98x4agVdAjd9Py95e6mti4Atzrm+ad399Eic/gZCCxaxLZmmRn76XxntmCBB0lgumvPUkJidAu2ggkczhZvL8f788R0ZfYTG1wHv9cHbqNygtCNiKdWsquJGroNWzxJ8908OaliYsX5iZjMsbH/YxeOE0AosKj8WLB7sJ1jSjPsVst2BCvmEYhmEYxscSwKaGCJv/8mVGMy727CX+7MW9VLX04OrifKZKQ03Q5uX9PZz3u8wv5amhQDAew9Wa77y0HuV2IaREaYXQuvQ1aK0QgCXB5/Xiug+UnGtNddRPdVnTSlmJF2irq4D6itIEThqlNUFLEqoqX+mw60HRUlWGJoZSxW00xKM0VEWLfQx08f2khtpoEMpCxcmgtMJnCeoqy1YmiKJUzvLgOamP+ti2fR12pBqtHLSE2XSeD87dYWbyLtXBPJt29mBHatkQstnw6iE8Hm+ps4FCa2iKWPy7V3bj90qE7cF1FX4L9nY1UGirwScVk1mJTs/S3l5DuDz+SL+BR66VgMWc4tqNUeLODPuf20Ek3kKHgqZv7qNvKMHpU5dIJ6cQQpduXjRxW/LcjrU0bdyM0jbacdnQEmPtD54DXNClDrlClIb1LHbCtgUoYaHc+52TpRAgStcZjRBy5TyK0iBLti05qCQ+j8Dr86K1QGtFuU/wrb09qB0dAHgsic/nLc6m/Cla8cGEfMMwDMMwjI9VDOACpE1TxOYvv7YDhEDpUnfQUvhVrqIm6OHlZ7YCxaC9HK6DAQ/g+UzbV1qvtFwvx2z3kXEUBcXs+3CL+/1Aurye0gpceHTlh7axfDyPfP8gqTWdlSE6v7GveKyuA0LQEgvw19/ZA+wpbleI4g2HJcDyFld+oCOtJTQBv3d554r5X4PQCq/HAiyCymH/llbi/pb/n737fM7jyBM8/82qerx/4AmQBEHvjShDOYryUksttZ+e3ZnejbiL2I2Ye7n3P1zcy9uNndiLm5menp7pnvby3lEUJVKGFrQASRDePN4/VZn3oh48AOjkSBGi8hNBCcDzlEtXv8rKykL4YtfqxHefYxCK+zd2EtregT8epe64x++3TLb2tbBlxZ55qQazwbNA4HaWS0DgtQy8lv/qG7tOHDn3WLEhFCGfB3xfrazMp4N8TdM0TdO0L2NB0Csu+7u44vduMZccW/NCQMxPEXHF7y789CppNHuhAUQ8EO/tQUpwpMO1erQVEPAYBDsbY9ilc+m8PFe4aPm8328scY3fvg4d5GuapmmapmmL0uzAHNuee6j3i3xfObMzBd3CF1qfw7jZO6BpmqZpmqZp2vWlg3xN0zRN0xa92QckZx9+/HKPIGrad48O8jVN0zRNW/SEEBiGgW3b1Gq17/AgDE37YnSQr2mapmnaoqQaE9eYpoFhGJwbGuGVtz5g4PyIO02hpmlXpR+81TRN0zRt0RECDMPEtutcGB5n/8dH2HfgECNjU/yXX/yYDWv7UErpHn1Nuwod5GuapmmatngIhWka2I5kdHicjz49xvsHDnPs5FmmZ9KEQkEUCoSJZS4ckCCEwGM5GIbxZd8bpGm3HB3ka5qmaZq2OAj3PxcujnFuaJS9H35K/+nzZHN5HMdpzm9+6uwF4pEIjnQQ815oJAyDeq3O6PgUtuPoQF/7TtNBvqZpmqZpi4IQgmy+wJ9eepvpVIapmTRSSgzDaM6qU6vWePnNfez76JDboz9/edw3webyBVYs66YlGXcvDHSwr30H6SBf0zRN07RFw+/zsrS7EyEE6UyOim03Z9ZRSiEsk/aWJF2dLUh5efSulCIUDHD/XTtYtWKpO92mDvK17yAd5GuapmmatigoqfB5vTy2ZxddHa3sP3iEvR99xunBIcrlClJK/F4PTz92H3vuvQOl5BXXYwhBMBjA5/UgpWoO89G07xId5Guadt2pm9Rtpk/kmnYLUBD0+1i3qpe+5T3cd9d29h08zOvv7OfM4EUAQsEgrS1xlHTgavPrKHcwj24XtO8qHeRrmnbd6ZOqpmlfhxucg8/rYc3KZSzt7uDe27fy1r6P+fToCfw+rxvEq9lva5p2KR3ka5qmaZq26CgFAjeQ93m99K1YSndXO4/svhO/34eUVx6qo2maSwf5mqZdd190uI77QJxCCL7wg3ECUFdZQN9B0LRbzPyqrhR+v4++Zd0oQEqp67ymXYMO8jVNu+4+78SrGmNl7bqNaRpU64qAT4CwUFfpnXOXEdQdB1MoDMPUJ3hN+w6Zre+yEfXr+q9p12Z8/lc0TdOuL2EIJkp19n14ikxqlE/OzzB64RxOtQSAIcAwjMv+FR34sP8cUxdOI1Ttqs/baZqmadp3ne7J1zTthnKH14B0VPPFNQrBcL7Ka69/Sm9yGSWxlrf2nWLbuglWrN/GuYkihelxhGEgFQQMh1VL2yhHunn38DliPVm6l69AmBagcKS66h0ATdM0Tfsu0kG+pmk3jCEEA9MlBs6cQZYLCNMAJVACLmQrTKTH+fSITWBJkKF8jdGP+nlUwlA1TP/x00yMD9MZMunp6MB0ilhdPmqVMtlClal0BuGxMQQEfRYen999UE/fwtc0TdM0HeRrmnbjGIbBoQtZDrz6PhtXRgm3dSMdQCmcSh0Z8VCs1BHlMhuXJ7CMJCFfgO9t6aO7bw17336Jh5d7SWx4kE9ODjG89yAj5wY4mK4zUj2ILTzkSlXuW+Fl692PgOFFT6enaZqmaTrI1zTtRpOKlfEgT+/ZTnL55uYE2OczVcZKiifu9NO55TEmszlS05P0tUXxBuJ4rSpejwfL8hALeOlb0gIoBi5eZFWPQU9fL0Vl8dzBcyw9c4Jtdz0Aple/vl7TNE3T0EG+pmk3mik4nS7x+1cPEG4dJl9y2LIsRPeajSiPSaVYpOpI3jp8nszxffT+YDcqnERJhVIKR0qiXsG2lUuIdnZz6vRpblvro2/HJjKOn88yXozJ4cbGdISvaZqmaaBn19E07QaaDbkTIYtlS1rp7lnCQMnD4UPHseo5ol4/+XyVyXKJY0fOsjYqsKItoOYeohWAQmE7DuOZPE62jDB92ErhODVqxQqBQABhGOjpdjRN0zTNpXvyNU27oSxDsro7xH13bMRqXc+x8gAcHcI0BF4zyOBIlsLRU3SpSe7cfSfCGwMkiMZDtEIgpUIKxUSmgl9VCMViYBjUJdSyZTwhAyEM3ZGvaZqmaQ06yNc07YbKVmv4vQohPEgp8Ts2IZ+PYMhHW0eSP/56ks4Tf+Y//WAn3o5V2DWbgM+iJgX5UoWz40UGXthHd3eIo+cdVoRrBBJtgIFSElmX4Cjdia9pmqZp8+ggX9O0G0IARQml6QztgQDeQIiyVOQyRVqMOl6vh0DY5GLR4ZkdBr0bdtA/VuXkvo9oWeLnbM4gO5MnVZTs2BlkzIyTH3iD9Xf34Au1oRQ4KGxl4wsH3F5/3ZOvaZqmaYAO8jVNuxEUGAZczNn4MqPEemK8cWyUM2cOcOHsee6/u5OhkpejH++jLVhGmUkcYTGeLjM0dpGyJ8n2JS384D8+QSAUZ7SuOPy7D7mny2Dtpm0YngAgqElBuVbGsBQIo7ltTdM0Tfuu00G+pmnXnRBQMwz6Tw0Rs8r09q5gwklg1evcsbaDjBXkpT++xkZjkjv+5hkOHzhP/L19DJs9rO728MD9OwlGO8C0ODGR45U/vU17bZq7n9wDoQ7GJjMoaTMwUyGQHSWZWIIUJkrqCF/TNE3T4FsY5M++zVLpybA1bdEyBJTr0GIV6Vi/jLauHtqtMPR2UMTDC/sOc88yL3fseAYzvoTu7pW8/s4BAsXD7L5/LbFkGwqL6ark9KlzbOlwuP32B0gs7+PQQJp33/iIanmSmpTs7BV0r1yHIw1Afu6+aZqmadp3wbcuyHccGxAIIfTr6zVtkXIUhITk7s2rEQIwDATuRXpIOfx41zpMsQ7DMFHAxmUJ1vz1wxhSYlkmthSgHOIWPHX3Bgw2YJomjg0be2Ks+5sHm8NyTBMM00JJiW4SNE3TNM21yIN8gWG4Z+1iscjAwCAnT56kt7eXbdu24fFYukdf0xah2XppmIYbiyuFmvd3yzQBkI3fhQCvZQLmguUv+65SmAJMj6cxf/787Sn0FDuapmma5lqkQb5ANE7WlUqV4eFh3njjTf7lX37N+fPn+a//9b+wfv06fL4ojuPc5H3VNO1qrnYRfunf3V+/4HcbC1zp20opfYdP0zRN01h0Qb5AGAIElCtl+o8d5c233uall17mxImTtLQk+eu//jlPPPEYgUAAKfX4W+27Syz4aXHd0XID7bmeddXssb88AP8in13p82stp2nat42ux5p2vS2KIF8phWmagMR2bPKZFK+98jK/+9UIx471EwmHefYHz/DsM9/n9tt3kkgkkFLO67VTzMYCXzWI+NIBBgpm379z6bLzehm/+v7ApY3etfbni6/3yx3ntY5lNg2+1v64X/ji+/NF13ulwO8r58sXLV9wtTy7HukuhMBQakFyzf/ssvUKmnfErrXeL7u/X7zMz/7fTb/Pe47my34mmD/c56vm5/z9XLjcjVrv1dapAOPLllvVqIfXWq9SGIZx1eO48nqvVU6uQ3vrfuGybcpGm34j6ueX3t+vWVcU7iFeVge/ZvopRXMY65WWu9Ky16dNhS9VV750fgq3/IvLNqNp2ld004P82ZNQPl/g7NkBPtn/PqcO7edIqUA0FmXH7Xfy7DPf58EHd7N8aQ/pTJazg0NzJwilCIUCJONRCqUymWxhQcPj9VgkEzGEEExNp7Btx11WKTxeD8l4FCEEM6kM9brdXK8QEI2ECAUDZLJ5SqVqo+FRCAyi0SCRUIhcoUi+UEIpyWzLFPB5SSaiVOs2M6lMs0FHKTweDy2JKACpbI5atT63TSAWCxEMBMhkcpQqteZxCAShUIB4NEyhWCKTyze3h1J4vV5akzGklEylMjizxwl4LJOWljgoSKVz1Gq1xmcK0zCJxUJEQiFSmRz5QmlB/kTDQeKxCNl8gWyuOD/nCPh9JOJRqtU6mVwBx7YXrDcRjxAM+JmcTlGp1ptLGoYgHosQ9PtJZXKUSuUF+RmNhIlEguQLJfKFIvOyE4/HoiUew7QMJiZnFuanxyIZj2GYBtOpDPXaXNoCxCIhopEQuXyRbH7+sUAw4CMRi1Kt1UhlckhHzqWfx6QlEUMIg4mpGeTsNI1KYZoG8XgUv89LKp2jXK4sLEPhINFIhEwuT6FQagRk7nC0YMhPPBqhWCqTyebnVwoCfh/JZIxqrU46k8NxHIRw3/CazRcAqFbrjIxPUipXm3liGAaxSIhgMEgmm6NQKs8FGUoRiYRIxmMUS2W3bM7LT6/HQ2K2PqSz89JPYRoG8ViEUDDA1Eya8oKyCZFwiFgsTC5fJJPNz524lSIY9JOMR6lUaqSzORwpG2mgsCy3fno9FmOTM9izdVCBabrlJBDwM5PKUipXFgQL0XCQWDRCLp+/LD8Dfh/JeJR6vc5MOoszPz8tk2QihmWazKQyVGv1BcFcJBwkGg6Ryxfcuj0vjYIBP8l4jFK5QiZXQEqH2XpoWSatyRggmJ5JYzuymQYer4dkIooAZlI56vW5sjlbH0IBPxMzGSqV2lxbIwThYIB4LEK+UCKdyy/Iz4DfR2tLnEq1xvRMo61pfOyxLBLxCKZhuvWhvjA/Y9Ew4VCQqVSGcrMMuYuHw0ESsQi5fJH0JfkZCPhIxmNUazXS2XxjyGTjWIRw630wwPRMmnKl6n6mcLcZCxMK+kmlG2WzuV6IhIPE4xFyuTy5XHHBvSk3z6IYwmA6lV1wLB7TIpmIYloWk9Mp7LrTTANDCOKxMKFggOxsfjZX3KhniRiVSpVMNr+gnPi9HpLJGI7tMDmdXlAODMMgEYvi83kbbfXC9Is0yuZcvZ/j93lpScSo1WrMZHJz7QkKj2XR1uJ2Ys2kc9Rtu7mcZZkkY1G8XoupmRylUmVB+xYJB4lHI+TyBXKXtJvhYIBkIkqpXHHbNzl7vnK36Z4jG+eHen1efkI8FiUcCjA9k1l4nALCoSCxSJh04zjn52c4HHDLUKFELl9oDskTgNfrpoFSisnpFI4jsTwW0zMZCsWy24GHpmlf100P8oUQFAoF/vKX5/i3f/st+/d/iFKKXffcS3tPH47h59i5CTpOniOZiPPyW/t4e9/HeDweABzb4fZtG/jx0w/zyZETPP/qe9Rse3bgLj1dHfz8B49hWSb/85e/I5XOubN0OA5LOtv42TPuZ7/63YuMT824PV6NOwsP33cHt2/fyPOvvseh46cQ8z578N7buX/XDt754GPe++BTavU6wjBQUrFudS8//f4jXByd4Nd/fIl63Wnu65KONn7+w8cwhMFvn3uNiyPjGKbpBgKWxWN7drF142r+/PK7HD81MJtKWJbJnTs28fiDd7P/4BFefON9t30XAmk7LF+6hL/96fcolsv8w7/+hUw23+y9a2tJ8IufPoWUit/8+VUujk5gWSaOlERCQZ58+B7uu2sHr7/7IXs//KyZNwrFg/fewdOP3M++A4d46Y0P5rYpJZvWreTHTz3M4IVhnn/tPdKZPKZpIKUkHArywyf3cNuW9fzrH15h4MKwu07lBkrff2w3Wzas4fnX3uXgZ8cxLauRRjaPPrCLPffs5N0PPuHd/Z9Qt51mfna1t/LzHzxONBri7//5D8ykspimge04dLW38pPvP0Io6Odffv8yF0fH3TtESmEIwZ57b+fRB+7irfcP8tbegwhDNO8GbV6/ih8+9RBnB4f4/QtvUiqVMUx33vXO9hZ+/oPH8Pu9/Pf/77cUGxclUkqi4RDPPvEAq/uW8YcX3uRw/2k8lvtAuGW55eSh++7g1bf2s//jw82eLUMIdm7fyFOP3MfHh/r5y8vvuGdUwK7bbFq3ip89+yhDI+P8/vk3yOYLmI38HLwwDALGp2b45W+eZ3BotJnuoWCAxx7YxY4t63jxjfc58Omx5onXkZI99+zkJ08/zInTg/zy319AKonAQClFd1cbP376YUzD4N/+9ArDY5N4LKtRTgI8/dhu7ti+id/+5XVOD1xo9lZapsnuXTt44qF72bv/U154Yy8ey3LTyHHYsmENP376YU6dPcdzr75HsRHcKSlpa03y8x8+Tmdbkv/1z39gOpVp1qNwKMD3H7ufTetW8fvn3+BI/xksT6PJUordd9/Gkw/dwzsffMybew82x+obQrB2VS8/+f7DjI1P8y9/eJliqew+BCwlHa0t/OzZR2ltifPrP77CuaGR5rIey8P9u7bz0P138Ob7B3lv/6cLhgVuWb+aHz39EEf7z/LSm+9TLFXcIYZS0doa529+/D2EEPzjb54jnck102BJZxt//cPHMQ2TX/3+RUbHp5r1fq4+rObfn3ud/tODWKbZKEMWd+7YxNOP3scHBw/z3GvvYRomoJCOYuO6FfziZ09zenCIX/32RWp2vZnfnW0t/OiphwgF/fzq9y8xPDqBZVlIKQkGAnzvkXvYtXMrf3rxLY6eONs8RtMQ3HPHdp598gH2f3yYP738TjM/HUeyaW0fP3n6Yc4NjfDnV94hly9iGAZSKYJ+H88+uYed2zbwu+feoP/0ucY1uCIUDPC9h+9l++Z1/PmVdzh46HizHUcq7r1zG089dh/v7f+UN987gKPmLqY72pL89JlHCQcD/NNvnmOkkX5KSlpb4vzVs48Rj0X5f3/1JyanUxim21b7fF6+9/C93HXbZt794FPe2fcx9rznuDau6ePH33+YM4NDPP/qe+QKxWY7v3J5D3/1g8fIZHP8z1/+oXnXSDXat2efeIBVvUv540tvcvTkILNRtWka3HP7Np546G7e2nuAvR8eci9shXssa1Yu56+efZSh4XF++5fXKVUqzfrQ3prkf/+PP6BcqfLrP77C5OQMGICCtmScHz71EEs62/jjC29x5MSZZl4bwuDeu7bx1MP38e4Hn/DOB580LxAEgl07N/OTZx7h2KkBfv/cG+5FnSGQjqSro5UfP/UQlmXxxxffZGhkvLlen9fDM48/wK6dW/jDi29y7ORAM+0M0+TeO7bx6O47een1vew7cBiP19NMo3tu38rTj+3m/Q8/4833DzTacTd4X750CT//4WM4tsN//4d/p1gqY5om1VqdgfMXiYZDl9/p0TTtS7vpQT6A4zhkMllSqTSO42BZHkKhEJbHSzpbxB/wU6nVUEpRLFVIp3PNxsSxHYqlMlJKqlW3Z6lWrzcb3GgkhO04CAGZbIFUJodlmtiOQygUbDaEuXyBdDrnBgKNAK1UqSClpFAsk5r3mWmZlBuflctV0tkc1Vodw3B7WguFEtKR1Gp1MplCs+fcsR1CwQC27WAIRS7v7s9sIOrxWFQqVRwpyRdKpDK5Zm+GxzIplcpIqahUq6QzWTe4wF1vMuE+hFyv22Sy+cZ6DVDg9XqwHQdHur3A6UwO03IvdGzbdnvZFRRLlQXblEq6vUUoypUaqUy2cTtV4DgOhaJ7nNVanUwuTyqTxWyceO3G3xWQKxab65VKUavVqNZqKCUpFsvMpHN4GsGbXbeb6V4uV8hk89RqNrODEgJBP7ZjI6VsHGd2Lj8DPmzbxrGlm5+ZLKZpuYGfISiVKygFpXKVmXS2GQgIISgUSygpmz3nsycdJSVBvw/bdnAcSSaXJ9/osZJSNvNZSjffU+kcXs9ckF+uVFFKUSqXSWXdHjQhDExDUCq75bZSqZLKZhGNN7ba9Tr5YgEpJfVG2mayOczGdJPVaq1RbyTZfJF0Jothmu736zaVqluGis1y6/akOo6bnwqo1eukMjmUcvdHSkUkHMCuOyhTkc259cHjcYN823ao1uqAIl9w83N22IFlWu7dBKUoVyrMpLP4vN7GPtpuOWmkbSabI18oYwiBROL1et08cxSZxjaFKVBSYds21VodKRWFYolUJjsXFAKlcrmRthXSmVwzUEcI8sUSUipq9TrpbI5CsYRpmkhH4vN5m2Vo7lhAKYnX46FYqqCkcstfZvbOg3udOVfma25ZKJYwhNsueL2WW7cNQS5XaAb5jmMTbtR7ZUI2N1fvlVLUanVqtRpSuWmbnveZx7Lceq8UlWqNdDqHaRnN/J89znq97t4ZrNcxDIFS7h1F27axHUkuX3TriuVplFmbarWGQs21Ne4NMUzDaKZtuVxrtLeW29bM1vtmfubJ5NwLUEdJaoEAtZrb/uYLJdKZHMIAJRW1uk2lVkMq6eZnOou3UU6kkhTLFaR062c6k8dRstGOK/z+2XLikJ3Xbkop8Xgs6raDdByy89shpQj4fFSqtcaxuOWk7jjNp1jypTJOo61KZwtk8/lmR0+upYjjONTqDunZ3u9GvZ+tD07j/JDOZJntrrdMk3LZLUOlUsW9e+XM3XHM5wtIZ7Zs5imVS4066ODzerEdB9t2yOXyc/mCe2fGtusoKSk20s8wjOYwr3K5glSKUqVKKpOlbjvNaWuL5TIo9+5fOpun1Lg4dRxJKOinXrcRAnKFQrPNkAoCXm+jrVaN48w164JpGo1tSoqlMqnMvPyUqtHeum1COpNrBvkAyUQMx5HUHYdMNk+hWMIwTer1ult+NE27LoSaN7alVitd67s3jBsgFTl56iT/4+//gVdffR27WiIeT7Bj506efOJxdu++l77e5UzNpJlJZebdtldEwiHaWuLkC2Vm0pl5tz/B5/PQ3ppECMHo+BR1227c7lb4vF7aWhMIARNTqUbjMjfUIhGLEokESaWzjWEs7nLuLeAosWiYTC5PNltAzhuuEwz6aW9JUKnVmJxKNfdHKTW3P8DkTLoRsLnrFYZBMh4hHAoyPZOhWKo0j1EIg2gkSDIeI1sokkpl56Wgwu/z0dGWxJGS8ckZbNtu7o/Xa9HR1oJSiqmZNJVqrTFYQmGZ7tCFeDTM1EyaTK7QPFmBIhGLkkzESGdzpNLZ5jrB7Zlra0lQrrhB8/y0NU2T1pY4kVCQkbEpytVqszfeMAxak3FCjVvAuXyxmZ8KRTIeJR6NkM0VyOTy824tN/KzJYFpmoyMT7pDrBrb9Ho9tLUkMA2DiakUlVqtObRBCIjHIiTjMVKZLOlMvnkcQghCwQCtLXHKlSrT0+nmkBIAn9eirTWJYRiMjE3OG57QOM5knGDAx+R0hkJx9pa1m2eJWIREPMp0KjPvlrW7P5FwiJZEjHyxyPTMXH7O9nq2tyWoVmtMTmdwHNsdroPkl795ng8OHuH/+N/+ijt3bFpQTkzTJBGPEg4FmUlnyOeLzeNQKBKxCG0tCfLFEuMTMwuSn+p0AAAgAElEQVTK0Fx9EExOzVCp1pvHYpomLckY0XCI0fEp97b9vHHF8WiYZCJKOpNnJp1dkJ+RYIC21gSlcoXpVHbB8A6v16K9JYnX62F4dGLeUIG5bYYCASanUxSK84Z3CIhHw7QkYqQyOTKZPKrRUyqEIBjw09aSoFqrMzmVwpGXbLM1iWWZTE6lGhdi7moNIYjFwiRiUdKZLJnc7PA/d9lwyC3zxVK5MQzIXa/AHUrW3pZECBifnGnewVMofN65dmhicsZtaxrHYpoGLYkY4VCQ8anpxoX1XBmKRUIkEzGy+YJ7p2NeHQwGA3S2JSlXqoxPpuYNG5xXH0yDiclGfRDu3avZeh+LhBifnKFQLDdLghCCWDRESzJOJpN3tzkvP8ONel+p1piaSV9SHwxakwnCoQBjkzPuULzZzwyTZDJGJBRgcjpDvlCc145DLBqiNRknncmRvnTYpddDe0scwzQZn5ymWqs308HjsWhvTWBZJqPj0+5QntnhJoagJREjGgmTSmfJ5PONtyK7n4eCftpaE1QqVaZnstjOXLsZ8Ptob01gOw6j41MLhvnM1vuA38dUKuPe3WuUk9n0SyZipNJZsrnCvGXdoYHtrckrpp/X46GroxVHSianF56TPB6LttY4Po+XqZk0+WKp2d662wyTjMfIZPOks/kF6ReLhmhrSVIoFhvbnF9OvLS1xDGE0Tg/VJufzbbV0UiI8YlpCs22Zq6cJGJRZhrHuSA/I24Zci+85vZHCHfIUntrEqkUo+NTOI6Dx7KYTmX45W9fYHRiiv/z737BXbdtbl58apr2xXi9webPiyLIBzBNk0rV4Z/+7Y/88l9/RzIoyKUmODd4jqU9PTzy6CM8/PBDbNu6hVg8AUoy21QrpZq9LEbjpTuzJModX83cfNuzFAop3WcCTNO8bAygVBIp3Ybu0gfiZGObV/pMKYXTeDGP20s/f5s0xle7QzYufSBpdr2mYSz4TM07TsMQjd6mK6wX9zbq/LUqaI4dvjR93M+ku03TvMpxOo3jXPjw3mzaiiukO7jDQ6SUWKZ5+bFIiVTqsuNkdn8ave9CXLq/qnGC+ir52Ug/IRCXlpPGZ0KI5rCYL7Le2fSbfbjxi5aTz83PZhmal7aNAO3/+n/+iRdf38t/+7tf8OzjexoXQeqytL3a/jiNNLjacQJXzU/VKCdXK7dXqw+zF8GXlz+3DM0O+1m4P18wba+Qn/PT79r5aVz2YOS1jkXOy7NLyybg3jWkUe8vORancUfREJeUeeH2yn9+GRKX1cHZ+nClOjibfnDl/JRS4jRePjY/DS4rm5duU6nm0JWrbVNdoW5/rfxENZblCnXwi7bjlx/LtfJzLm2v3I5/lXq/cL2Xl02gOZzo0rK5MD/Fws+Ee7fkank22467dxEvLUNXLydzxykxjKudH758XWnWT9y0VYBhWExNT/N//49/5uSZ8/y3v/tbHeRr2lcwP8hfFMN1wD0BKuU2QonWDp55/H52bOjjrbfe5oUXXuTv//5/8ac//Zknn3yCn/3sJ2zevLl5S7ZJqWvOm29f47NrLSel5GqTdV7rM6VwHwy94mdqbszplfbnGtODSqkaQfsV1su1juXq6dMcfnLlT91tco1jucZ6r3Usn3ecXGWb8DXyUym4yudKqW+8nFwzP+el7WwvrJq9M4S7nNMINr7oNmcvjL/ScX5Ofl7rOK9V/uDa+XnN9Pta+fnVjuVaZVNx9WNRCncYylfc5lepg3D1/BSNcfZX35+rb/Na64XPq9tfLT8/d5vXLENXP5Zr5uc12nF32a96fvjqZdNxrn7uuPpxiq/Rvl3r/HB96ooh3J+v9m4NTdO+vEUT5LuU26IqRTgSYdv221i9ehW7d9/P66+/zgsvvMRzz71AV1cXa9asIRwO65dhad8pVz796ZOipmmapmkLLbIgf45s9OxHo1HuuGMnGzdu4KmnnqK//wR9fSvweLz6ZViapmmapmmadgWLNsifNRvIh0IhtmzZzLp1a92xjI2ZbjRN0zRN0zRNW2jRB/mzZoP92Sm6dICvaZqmaZqmaVf2rQnyZ+ngXtM0TdM0TdOu7fL5uzRN0zRN0zRN+1bTQb6maZqmaZqm3WJ0kK9pmqZpmqZptxgd5GuapmmapmnaLUYH+ZqmaZqmaZp2i9FBvqZ9S4kr/KRpmqZpmgZfYQpNIQRCXP+gQgACA2E0fhIGAgPjBl2GKKX0dJzaNRk3qvB9RUIIhJKNOgJCGBiGgUKh1OIJ9HXd0rTFz2icaxcNYWCYjfhCuPtnGgYIWEzNiW7ftG+TLxnkK4rFMsVypVHIr2cDoXAcSaFYwpEOuUKBqZkZt3Zf14sKhWEYhIIBAn7fdVyvdiup1+vkCyXqjoNYJCdCIdwTTKlURipFNpdnfHIa25E3e9fmUfh9XsKh4KK7SNI0zVWr1ckXijiOvM7n169IKTwei6npDJVKBcd2SGfyjE+5MYBaJG0wQNDvIxQK3JDOTk273oSad0laq5U+d4EPDh5h70efUipWkCjEdQz2pZKcGRziwsg4K5f3sHJ5z3VZr0uhhMBAEImEeOi+29mxZb2+ItcuY5km5y6O8tIbexkdn3bLyCIpJgrF0RMDXBwdZ/OGVfR2dyHlItk5AZZlsWndKh7fcxfhUBCp65emLTqDF0Z44bX3mE5lG0G0usmdGQphGJTLVY6eOEu2UGDL+lW0tyZwu/Jv4q7htruGMPB4LO7YsZE99+zE4/Hc3J3StKvweoPNn79cT74QnBm8wEtv7MPn85KIRjAMcV1vpRmGwYpl3UgpOT04dN3WKwQ4UjKTzgKwakUPt21Zf7PbDm0xEgapTI439x5geGyS7o52LMtcNLeM/X4fa/qWU6nUODlw4aafAMGtX6VyhYnpFJVqjT333EYkIsBZBDunaRrgDvlTUjE1neK1dz8incnS1dGGZ7G0bwLisTDxeIRMrkAmW7jZewS4Q4fS2RzpbJ5AwMd9d+1Ax/jat8GXHpOvFPi8Hh6893buu3M7Xo91nXvD5/cmXL/1GoZBqVLl9Xf2c/BQP0ouithIW6QEoJRg5fKl/OJnTxGPRpBysQyLuTF15CsTIBCcPT/MP//786jFsE+apl1Zo/kwDYP1a/r4+bOPEY9FcBzn5u5X02z7tnjaEa/Xy3sffsJzr7y7mHZL0z7Xlw7yUQrTNOldtoQ7tm/E7/Mi1WIJfq7ONEwKxTInTw/y6ZETup5q16Rwx78nYhFu27qB1mQcKRfLSXCxcR+W8/t9+H3exfWUnKZpl1G4vfrtLXF2bltPa0sC27Zv9m4tSgKBafkYm5jC4/Ho2EH7VvnyQX6Daozjk0p9K87p7n5Kd1/VoppTQFvE3JlrZv/d7L1ZrNyE0c+3aNq3i1QgpXtdrqvvlSkUllD6+SLtW+mrT3+hvn0ndT2MQPsqvmXF/KbRyaRp30I6wv9idBpp30Jfa467b19v+LdvjzVN0zRN0zTty9ITWWuapmmapmnaLUYH+ZqmaZqmaZp2i9FBvqZpmqZpmqbdYnSQr2mapmmapmm3mG82yBfu3LyX/fkKf7vW3z/vM027ma5WNN0y++XL+o0ibtJ2NU379hNCLGg/Lv39yst8c22Obt807WvMk/9lKXBfcS9UIwpSKCUQggVvEhVCuDN6oRBKNn83Gg2IVI25+R0HwxDu3w0D6b696Js6HE27ogXTyrpvnGlOLSkdxw3x550M3e8LJBIT9y27hiGufqUwuy6lLjuJuZtWVz2xSdl4SUTjyw4C5dju9vj8E7SmaRq47ZYjFQKF0WjjpJRum2Rc3pmhGn9xJKBshGEgPme2O0MsbAeVUo1fL19OAarZvrlbc5RCORLDEFddTtNudd9IkC8AWxgMX5zCqhXoXtmJMP2YhiJVkUwPDNC9JEEw1gKAFILpkk364gArliTwRTuo2Q62bRPymlzMOkycP8Xq7jjh1m5qhQo+r4EwLR2oaDePEAxNFKCWZdmSJMITBOkG4/m65FD/IBuSktala2dfH4USBhemC6Snx9mxogXHlySbL1Kv1dxV4p40505iYBmCaNhHVZqUShWQDpYlCPi92NKgXK6ilHvCVYAhwG+Z+EM+DMMCJbCVwamxLObEOdZvXYXpjV32Hgml1IILcE3TNCGgJgX9F2ZQMyNs27KUsWqYoYFB+lotOnp6UVg0X5IHCBRlJTh+7CLLQwW6Vq1DCXNunY3vSamQ0kEhKFZqVCoVkBKPJQgE/FTrUK1e3r4FvBa+gB/DMBFARRmcODNMTGbpW9OH6Qk2+wBnIwRHui/I1LRb2Q0N8t2ORbdmSQFHhlNM9n/MM75NdPRupChN3vhokPKnb/G9H96HP5YAZWCaBnVh8MGRYepjZ9j20GOcna4xeOYEj29uZzDbyicfHKBz9xqm/Es4/cZ+7tjZRevS1bgjkHSPvnYTGIKToznOHfqYp+/pYemaLUg8AGTrkhf3HaNlQ53W5eubL6BxgDNjOV59+SNqd0VZuekODvZPMX7hHKYlsZUgnSoQtGyCkTAYFvGQh0fvXsPb5w3OHjqI32NAvc6Ota0M1ZJc6D9JSzKAEhZCQLZs02OXeeTZXcTbe1HC4NhQjn/899fYUDuN7X0C4YmhlGz2ngmgMxkkmWxBGV50ndI0zb2jDlVH8f6JCeTR/WxbG+BC1sub73/GU5uDdPZ0g7AAgVIKUwjKjuClY6O8++sXeGKHn+V1C4WBUgrDMEBAwITOtjihaJK8rXjuwFky544hDINqLs8D967jwDmBPX2WQDgMwr2DXy7V6AsKHnh0J+H2XmxH8NHADH/+3QtsS1Yp2rsR3ghKOo32zY0RetoixOKtKN0xqN3CbliQLwRU6pLTIynKqQlMQ5CvlDmZLhDb+xmr0g7nCgZvvfwhG+JFjg/N4J3qxxCCtctbCPuThDqX8e7RvazcfIbhVJJP+we5s71KWYapVOuUyhXOT+U5+slxNq4UtC5dCcLU8Yh2Uwil2LiqlYHBNt7/4BCPhwLEezY0rnPdYTjCmL0IdQupRyi2L09yfuMm9vZ/wpJkP5tXbqavI4IpJClp8PJfDrK8rcTGLSsR3igBr4kRijE4MUhUTtG77m7e/eA0p0+cZcjqIlxLc8/2jUhvCz5L8NqpDBf3vUy9lMURcD5V4o+v7OeTd9/D7DMp7z2EsPwIFDUlOD+WRmbG+dsnt3L3Aw+jTJ8eCqdp32FKKaSCurTxWSYCMTe+fraHXIjmEBxHgnJsTFNQdwz2np7gn373Gs6pw3wUXsaZ/EcoZSCEIFe2OTs8zZpQjv/8o4eIbb2XUg3OjkyyPVTBu3wjv/nHD1i5/CKf9Cu+t6LEmh23Y1p+Kpgc6B/lwumDOMU0UvRxdHiaP/zlbU4c+gyrL0ZaHALTgyEUJRvOj80gUuP83X+4h5a7H6MuzWscuaZ9u924IB+BLRVDM0XOHDlLNZdCAlFLcGaySurjo4TiSbasaydotjA8XaJUSBPyKbwem6GRCTK5SUbrHg4cOIlKrkJ4Arz2yRATMk+uUOaDYyOMmA71zExzjJ+ORbRvmvvMCJjCoDcZ4cEHbufIe3my6RzxJTYYHvc7ponHazTLqAJMBV3JEL94fAcXx7qIh+pEEq2UKxFCpiLrC3H0wAirunxsXLsC0xdHCEFZSgJei7XLkqzfvJaTAyVEqUjQZ9HXnWRF33LGchb1cgEPNsvXJPBHWzlwNsve998lnhvjxz96AH8xzZY1PazcuJ687af//AQV5wgreyxWrdmA8oRB39LWtO80wxAMzZTpP3ac+9cloaUPuHJ/mhBwcqpC/fxndPUt57NTed755DDP9NmkOh8gHJE8vGU50a7VTJclnx4dxK467NiwnNalfUhlIJRD1G+xcXk7/vVreSU5gGV6CQUUa5a1sqx3OZOpEqViGZ8XOnoTiFCSd/vHOfjuu/R5Uix7fDcJVWHrxhX09K0kZ3s40D+CrY6yYbmX7r712OgAX7u13bAgXypFxGexbVUXM5PjGGYRf7wNIQRj2Rpd3jQPPnIb/eclSXuYzi3b+PjgIGsiabLJHsYPH6KnVZCMrCBbKrClzUfsrq3kpiboFBJjxf3ueOFsHWNNL/5wfN4IQE375ggDSjXJ+eEZClOTBDwGd9+xkbZEBIUBjQfGpIR63UEI1Qz0M1WbgbNjUJhhWUeMZKKL4TL0H+5nbdIhuHKL+6C5Uigp3QdulQIlqTuKo+czpH2HmBq/QEtCQuNCN112OHRmjJmRc4hqiQ0b1uCJtjFxaoo1oTr3Pfgg1pI1vPReP//63l42nT3LuGzBnhpnz46l7Np1D9G2Xhx3oOzNTF5N026i2cdo8zbs++wCPbUB+h7o4UqT8wmgLgzePz5C64XPCLUlycxM8cTGJHvufZD+QpjfvXGAX//ubZasHGI4V6fDyPPTezayfsdOPKEYSrrtZamu+OT0OJ7cYcqFCRDdgEAqmC7UONA/SHFyFK9hs2nzKpxgO9PHL7CpK8gDu26jGOrh968f5p9fe5/1y84ykAsQK0zz4D0rufO27Xjj3fOeOdJxg3ZruuFj8mfyVSYmxrgtUqd9dS8CwcipFIODJ9iRzzAwVKNWP0do5RpOD4zR0jKGmVwBnio7Vi/hWK2Liwc+YiSVZWRiCq+oIRE4toNhgEcaFONhDp0aYXciiT/W5QZWmvYNMYSgLhWTmSIHjw3hmTrHT5/cSmjZndiOCSjqSpIZLjAZKbFBVBDKD0DNlgyM5zj+2SG2tjr86NnHKMluLo5NsgSH0EqJBAqlGulsEbNqEPCYEAjiSJjKVGB4glIhi2ixkBLK9TqWrLFySZLuiEnCb9DR0YbCYseKCMHVuxmacTj5l/cp2TmWdUYwfB58FYUR9DORrvPRkbOsW1ElnOzC77WwvF6E0PVK075r3If+YWnCT++6DfSfeIult01ecZILy4TJkiR1+iyblrXSFo9z3844ptfilRMZ0hcO0V6vUl+6FGV6CXocyng5PZmn8tlxelcuJRiKIYUHW8LodBFTjlOr5RFCopRBqVyjVdisW9qObA8RC3rp6mrDNi3uXNOGZbZwZKzE0LkPUYUZlnW3I0wTv0/gtw0uTtdwPjnO2jVVgtE2/B4Ty+dBvzZIuxXd8Nl1hBCU6jA4mibtPQ8YTIzmaKtXEAhMUyBsEwVYpoEwTbweL/mCycWhMaY9PsjO4PctI+AX+AScmakxfvow65e30drdR0u4i2jYQphe9DRZ2jdNSkXYY3D3+h7qVojDb0xRKRUBBxq3g1Mlh9LENONLFIZdQBp+FNAa8nDftj4msnmy00fAqWAYYBomRuOcUxGCD0+Ocb74IabXzx0rIvRuuwufJdi5OsnqO+7ghXo/yrlITSneOTTMdOklYslWvIEg+aoiUT3M5ns3c26qTnZkhJjXRyIRpNNqYfempXR0LkUFwwyOppkcGiJdKfLKp2dJ2GfYsbGHpWvXIKzAwilCNU37zoh4DTZvWsbbRyOMnjmGMHov+YZCWRb9F1J40gMsuWsTMxWLzz4dQJCjNemnNR6mty3GkmUb6GxtI+/4ODJwkfLMBOemyxwf+ozuhMXydWsIe+HezT34Vt3GqcNFwKRmOzy//xytZ5+nvSOO8gSplOt0eU+wYtNKzkzXqU+MEg6EiIa9LGnrpDsWpX1pN7Yvwqkzw6SnxpkoFxnY309SCG7ftIzu9WuQjg7ytVvPjQ3yG/N2R30mq9taaVvdhxCCCdLIc0PzpuwT879O2O8hEG1lbOoiKp5lfaePu7ZvABEHFK8dHmapMcOju7cT6doMSEBRr9so9NAC7ZulcMes+jwW4VAAr8+HEEbjORETJR3OTRbpaqtQiIZxsilItCIAyzCIBLwEgkEMy4NpuA+jzR965gG6O2OsWteL4Q3TkvQhhIkhIBL0kIjH8Pr8yDL4/AY108PE5Bgru6KsWLuRN88VGTl7nJ1yNS1tbfQfGiZvjtO+rINs2eLDIydpNz6ifdVqUCZCgOnAsmSUJckY0dY2EJZ+3kXTvquEGyysbA2wt2cFJ44dQXQm5sby4LaBedvk9LlhWlskrZ1d2OEo/tYWBk4MISoCX6yN4YzNiwf62b40iCfejZAODoKgx2ZJd4LOznY8oTiGMUIs5MMXi2CZXvcdIqaB8nm4MDzBveuj2O19HB6cYGjoCJu3dBNPtHO4f4iQNU77klYG017eeXMvvSuiRFu7EMICBaZtsqIjSmdLK+GWBErqAF+7Nd3AB2/nZskN+gTLOhN0LFsCGLTlfMyMBq66bMAy8CaiDJ8v4qgJtnYE2XcmzeEPX6dWrzF4YRpvbYah6QKewGFMFI/c1s2ydTsRllfPBKJ9o2bvHUmpkEq6L3IzBKlyDTUxDskWBo9d4K6dXaTqEc6fHqR35zKU4Wu8VAb3friCiZkyM2IaQ1QBC4XCqxSruxNs37waw5cAoCodSnXFiwdH+PDCnxkfnqZ9TRCvAZtWd5Lwm/S0JujbuIY3h07Qu7qVjtZO2kKdlG5zyKVHcGSdsWyR88MXWbUhjlImKEVeCibOT3DfqgCbNm9FmnGUY6PHrWrad5dSipjXYOOGPk6/cwFvcQqBMdcsCMHp8Ty5zDQ7ersIJ9oRPh87Nq8gZFYpZlJUpeL0SAZzZBBzze0oR2IaMJarUZke4Ef3bGDZug1MVOpkyvDbt09ifTpFenoQITbiNU12rlrCUCZAdyyAWL2CQ2NllnYn6elZSogWRLnGzOQoyoIz51M45QksKwEYKBR5WzJ8apiNu9rZtHUddVug9HNH2i3qhgX5jVkDQRgMzdT43dmTxE6VAEH/WInl9kjjYUSFVM6CF3xaJniCPs7MzBCWVbyrejh/IUNpZAhPVzcdPoP29RsZGMywrsXh8MkymxIDLFuzFYHvspf6aNo3x31z7NlUlclX97LFXyLVtR3v6El2fm8Vn2RbOTTwIV1rZ/DGut03QAMKg2PjJez3DtLa04Ol6iA8zYtlR0psx8GUNgYCKRTCcVieDNCzppdSUSBlGduRLIl4sJas5MTEKGMfHaI6dIpV27rxBGMoQ3Hbhk4E7WTripF3j7F7ZYSnnn4Y29eJoSSTjsXb+YOUSmNIp44S+gSoad91CjdguHt1O0v8D/H+iSFgFBovppVKUCpWWBH30du3AsMbxJEObX5IbF6JwUqOT5U4MriX7+9exbo9D6CUhdcUfDpaZP/eCcqVCigHx5FY0mFlVwxPdy+Dx1OAO11nR8RLOb6Ct48foaV+iKnBQR7d1QWBBGEbdqzvRqxfwlAJTo+8x/a7VrJj1z2YQfdlm2Mlh8nROpVyGaVslJ5CU7uF3dh7VI2ZOZbEvDx211qefXIPP3xyDzt37cKX7MCwHVb3ttDdtwrT8jcX85mCjT0JWpaugiJEEkksqViWDLF65TJWLOlk3foVdHZ0smF1N/FkJ0qaugNfu6kE7i3r8zmbN94+QLRwEc/KLRw8NMCWXkFnz0q2rFnKiUI7Z48fwRQ2s/cBZkoO/YNjtJl5VvWtwjbCgHLno27cEzdmfxaCihTUcgU2dYXZsW0jybYlSMdAAn4huX3zCs7Zbbz051fY1lqjb/UmhOXDQBEOeiibPl4/PIAYOcyD92zFn1hGOOAnHApiegOYAnw+gbA8ugNf0zQADANaQl5WrVyC8EUbLVOjXVKKbd1hnnp8D63LN6Jw3z7rMQShUIDJquDdd46yOVhgw/27CQXChEMB/MEglseDz+vHHwgC7ssDyefZtqKV7ds24A+0oZQ7/XDEY7B17XKOllp476132NNVoWfNZhxpYQoIhXyk8fHW/k9od4bZuu02oi2dhIIBwqEAljeAoWx8PtN9665+jE+7hd3wB28B/B5Bd1uM1vZ2CqUaXk+eYDhKwDJZv6qDYiHEeKpEPpvFbDep1x06/Yqepb28deAsL7xxiDpJerzA7HjlRkQvjEY3gq6o2iJQqtqUKgXuXBZh0x138+LxAvHiGFvu24oVTNKtTDbfvZX9779FV+entK7YQdWBiLL5wZ1rufveLVxQEXKFEqlsHXMmTaGUJ50vMpXKILwK04S0tKgX07QuCWFaPoDmQ7G2VOQLVYan04ydH6W0PoFdr+BRilzF4dRoikMfHCLsyfDE7s20rtxKviQpF7OA5MxkhVJxnOTSKOBHR/ma9t0mlSJTrOJUy5hCkLcVhVweWa4ylcqRzgcpl0rUqopK3aFQKyGUJODzUMPgrWMXGT/5KRviIe7cdS/eSA/pfJlapUzdMLlwYYyYLBOOxUEIJrJ1vPUM0fhSql63fUO59+jrUlLMVxhJZRDnR6mvilOvV/F6JJmaw5HD5zn+WT9dsSK77r+NaOdKsmVJtTiDBAbGC9jVCeIta5DKBOXczKTVtBvqhgf5AY9JayKG5fdwaqrEc699wMThT3j09m5aWts4lLH5w4sfkr5wmg2tgqVr93DwQpEX//AqdmmGu5b5/v/27rW5qquO4/h37b3PPvccKJAQktAESMItARRMy822YFsrWtpx7Dh11NHRGcdnvgJfgG/BcXxUZxxtcbQKjgVtpeBYHJopFELpBYwJSaRAEpJzzl7LBzs3LrHck3P4fZ4k5+xk7zVn1uW/11nrv9n+1Fb+0X2Z4oUTLE75mEUF8pkM2Zo8ZwdGuTTQj788uGlKL5EHxTrIBxF7u5r5XHszfzhlGTlxmK/u2cSSxnYsPqFx7F5dy28udPLzV17nW3tL1K55jJefWsuYbeev3ed4641fc3VkgB7f4L99juEr43z8ccSf3/sPGJ+alKGhYSHuaonUklW8d7qX0cF+GmuTlCI42tPH6aEDPL18AU0//Ql/e+cUg6/9nh3bdvDupRTnjhzhSztbaVr5BbI1BcYiw9GeC7yxfz/jl4bIBxFPblzO8vWbsAQoyBd5eJErjCcAAAY3SURBVBlgrAy/OHiSC8ffwhA//fbyaBFTvMrPfnmQ8ShgdGSEVy8aXv9XH8555Pwymzpa+KSUoTHq5YVdX6SutpYglePiWJl9h05x/MhhXFCktibgG7s7WbB0Jc7AyQ/6WJAqMhwUOHP635iRIfxkC2PFq7zZfZ7B43/he5vShM//iMPHz9D/2310dm3jeK/l6vkevry5iYaVqwnTOcr4HHjnDMcOHqA8PkYhdDzX1cySleuxpThph2YJpVrd5yDf0bwoQ8O2zSQThoxJ8P2vdGF3bySXDbFhhtZH4McvbscWu8gkDdlcls1lQ/sP9+K5iGwywM/lGYv68Os8VrU1QXsbYeiTX9DA37t72LhyhJa1KzBBqBR/MmeiyNK5rAavfgeDRZ8V6dPsfnEnDc0tOBNisDgMKQ92bV7FsfBZhksjLKNEIZcm5xy7N7awra2O6W3r08PPZM22wPn/jrB6aIBSYTG9J86yoSlHx5Z2Uv2W3vIYm9fUsnrdWsL8Yhrrajl6spmBoUG2tS0haH2efD6FnwixzpDwHF0rHqHj21/DRhGBB/lMkiCdUXwv8pBzQMqH7z65hvLjcdpMc93x61/jwDeOVDJByRlSviWdzWOMh3OOfOix94l2nulaDjjCwKOQS2O9JEVraS+ELHhsC5/aPINnP2TPtiba1m3gCTtEsR92rW6gtaMTL8yyfFk9755o4PLFYZ7Z2IL3+RaymRAvCAGHZyOe7mhgx8qXcM6S8AyFbBIvkcE5q8lBqWr3fSY/4RsS6Xi9vQ8ka7JAFpjoPAJIFXLX/E8mhMziwtRr56CzbSmGetzE00Nx0LQw4Js7O8F0ED/p02EUlcgcMQaSCR/wqU846reumzjimDkUOgdLswme27oeHFjjwEZ4xpDPhOQz4azXmDxL/eIF4BrBOFq/3ohx8ZK1ZU1gtrQxeSFnLQuzKZ7d3AquNd7o6+LCuonR2ADZZEA2WZjtsiLyEPM8w6JcCnKpWf9mOqPe7CYn4XxjKORSFK47nwO8smV7Zz2wDAdsWd08dRfRVNcIbAAczhkMjqU1KZY+vi5OuOGYCtonr2UM5NMh+fSN/aoCfKl2D2RN/t0yZrIxzmiQE8vwJ993DtReZd4wcZadeKAx1x9iMgvP1Mh4i3XXTP004JnpQc3Eg5rnTZ9o5mnjZjIR2KudiMg9dq+m12aO64bpgT2e4Jt8ps7EsYlAIO4CPWXWE7lORQT5wNSs443vq1HL/PRZdfNu6u7Mzecz00rNds7Z2o+IyHxzbX+l/k3kTukxbyIiIiIiVUZBvoiIiIhIlVGQLyIiIiJSZe4iyK/ELS6VV2KZD1RvREREpLLc8cZbM5E9pFJSUMVl9aYyiyhsk1tj8Cqsrs8FY+LPSUQqi/FQ/3Yr9PlIBbrjIN85h40sUWQrIsONc47IRjjr9Hw7uWUOR2Qt1sZ1XW7OeGCt1c2zSIUwAC7u3yJrKUdRnJpXrmUggcVZ9W5SeW4/yDeG8WKJt//ZzfDwKIEfVMTCHeMZiuMljnW/T6kcKcqXW/LJ+T5+9dp+sul0RdzMzhVjDL19A1y6PKyvyUTmOQOUbUTPR+d45dUD5DJprNUkxmyCRED3iR5GRq7OdVFEbsvtBfkOwjBBMhHQfeIM7/d8WFF3/g5HsVgml8uQSFTMIwLkgXP4niGXTfPBR0P87o+HMJ6n4PX/cAZsFGGdI51O6qt/kXnM9wPSqSS9/QPs+9OheKmd+rfZGSiVy3i+RzJMzHVpRG7ZbUa6ji0b11LIZxkvlu5Pie4zA6RSSda2rdDMrNyUtRH1dUv4zkt7uPjplbkuTkXxPI+mZbWkU0msvt4WmVcmx7xHm+r4wcsvcGVkdI5LVDkM4Ps+Kx5t0CShVAzjZkS6xeJnNHgH1sXr9yr5rt+YOBgxxtNeGrmBcw7n4jXmuEpYjDZ/GDOxCdfzJl6rgYnMJ5NDfhRF4Cp6KH/wDHjGw/O0UVnmrzDMTP1+e7ejUxVc6fWlesWZJsDz/LkuiojIPTUZnAaBZqNFqp2idRERERGRKqMgX0RERESkyijIFxERERGpMtdsvBURERERkcqnmXwRERERkSqjIF9EREREpMooyBcRERERqTL/A6WJ39RX2jmGAAAAAElFTkSuQmCC;" vertex="1" parent="1">
          <mxGeometry x="-725" y="2021" width="761" height="333" as="geometry" />
        </mxCell>
        <mxCell id="GHWXiHdl8ZBUF20P6Pi2-2" value="&lt;h2 style=&quot;line-height: 1.5; margin-top: 35px; margin-bottom: 10px; padding-bottom: 12px; font-size: 20px; border-bottom: 1px solid rgb(236, 236, 236); color: rgb(51, 51, 51); font-family: -apple-system, system-ui, &amp;quot;Segoe UI&amp;quot;, Roboto, Ubuntu, Cantarell, &amp;quot;Noto Sans&amp;quot;, sans-serif, BlinkMacSystemFont, &amp;quot;Helvetica Neue&amp;quot;, &amp;quot;PingFang SC&amp;quot;, &amp;quot;Hiragino Sans GB&amp;quot;, &amp;quot;Microsoft YaHei&amp;quot;, Arial; text-align: start;&quot; data-id=&quot;heading-2&quot;&gt;Token的几个存储方案比较&lt;/h2&gt;" style="shape=note;whiteSpace=wrap;html=1;backgroundOutline=1;fontColor=#000000;darkOpacity=0.05;fillColor=#FFF9B2;strokeColor=none;fillStyle=solid;direction=west;gradientDirection=north;gradientColor=#FFF2A1;shadow=1;size=20;pointerEvents=1;fontSize=16;" vertex="1" parent="1">
          <mxGeometry x="-902" y="4226" width="137" height="85" as="geometry" />
        </mxCell>
        <mxCell id="GHWXiHdl8ZBUF20P6Pi2-3" value="Cookie" style="rounded=0;whiteSpace=wrap;html=1;fontSize=16;" vertex="1" parent="1">
          <mxGeometry x="-748" y="4067" width="160" height="80" as="geometry" />
        </mxCell>
        <mxCell id="GHWXiHdl8ZBUF20P6Pi2-4" value="&lt;h3 style=&quot;line-height: 1.5; margin-top: 35px; margin-bottom: 10px; padding-bottom: 0px; font-size: 18px; color: rgb(51, 51, 51); font-family: -apple-system, system-ui, &amp;quot;Segoe UI&amp;quot;, Roboto, Ubuntu, Cantarell, &amp;quot;Noto Sans&amp;quot;, sans-serif, BlinkMacSystemFont, &amp;quot;Helvetica Neue&amp;quot;, &amp;quot;PingFang SC&amp;quot;, &amp;quot;Hiragino Sans GB&amp;quot;, &amp;quot;Microsoft YaHei&amp;quot;, Arial; text-align: start;&quot; data-id=&quot;heading-4&quot;&gt;其他前端存储方案&lt;/h3&gt;" style="rounded=0;whiteSpace=wrap;html=1;fontSize=16;" vertex="1" parent="1">
          <mxGeometry x="-746" y="4239" width="160" height="72" as="geometry" />
        </mxCell>
        <mxCell id="GHWXiHdl8ZBUF20P6Pi2-5" value="&lt;h3 style=&quot;line-height: 1.5; margin-top: 35px; margin-bottom: 10px; padding-bottom: 0px; font-size: 18px; color: rgb(51, 51, 51); font-family: -apple-system, system-ui, &amp;quot;Segoe UI&amp;quot;, Roboto, Ubuntu, Cantarell, &amp;quot;Noto Sans&amp;quot;, sans-serif, BlinkMacSystemFont, &amp;quot;Helvetica Neue&amp;quot;, &amp;quot;PingFang SC&amp;quot;, &amp;quot;Hiragino Sans GB&amp;quot;, &amp;quot;Microsoft YaHei&amp;quot;, Arial; text-align: start;&quot; data-id=&quot;heading-5&quot;&gt;硬件级别的Token保护：USB Token&lt;/h3&gt;" style="rounded=0;whiteSpace=wrap;html=1;fontSize=16;" vertex="1" parent="1">
          <mxGeometry x="-739" y="4548" width="160" height="80" as="geometry" />
        </mxCell>
        <mxCell id="GHWXiHdl8ZBUF20P6Pi2-6" value="&lt;div&gt;&lt;p&gt;cookie是大家最熟悉的前端存储方案。大家对它的一些特性很熟悉，比如同源限制，自动携带等等。那这里就主要说它的几个安全方面的配置：&lt;/p&gt;&lt;ul&gt;&lt;li&gt;http-only：这个参数限定只能通过请求自动携带的方式获取cookie，没办法通过脚本去获取，这样一来就可以有效避免cookie被xss攻击，及时你的页面被不小心注入脚本，也无法获取你的cookie。&lt;/li&gt;&lt;br&gt;&lt;li&gt;same-site：这个属性规定，只有请求是从同源页面发起才能获取cookie。这个主要是用来防御csrf的，因为如果只要是同源请求就可以自由携带cookie的话，很容易就遭受csrf攻击，比如在token失效之前打开了攻击者页面，该页面自动向后台发送请求，就会携带cookie。&lt;/li&gt;&lt;br&gt;&lt;li&gt;secure：这个参数可以让cookie只会被https请求携带，https应该是是目前最好用的几种防止中间人攻击的方式之一，可以有效防止你的token被窃听。&lt;/li&gt;&lt;/ul&gt;&lt;/div&gt;" style="text;whiteSpace=wrap;html=1;fontSize=16;" vertex="1" parent="1">
          <mxGeometry x="-579" y="3936" width="550" height="305" as="geometry" />
        </mxCell>
        <mxCell id="GHWXiHdl8ZBUF20P6Pi2-7" value="&lt;div&gt;&lt;p&gt;SessionStorage：sessionStorage 特别的一点在于，即便是相同域名下的两个页面，只要它们不在同一个浏览器窗口中打开，那么它们的 sessionStorage 内容便无法共享；&lt;/p&gt;&lt;p&gt;LocalStorage：在同源的所有标签页和窗口之间共享数据，保存的数据长期存在，下一次访问该网站的时候，网页可以直接读取以前保存的数据。&lt;/p&gt;&lt;p&gt;IndexDB：类似LocalStorage，只不过容量大很多&lt;/p&gt;&lt;/div&gt;" style="text;whiteSpace=wrap;html=1;fontSize=16;" vertex="1" parent="1">
          <mxGeometry x="-753" y="4321" width="550" height="188" as="geometry" />
        </mxCell>
        <mxCell id="GHWXiHdl8ZBUF20P6Pi2-8" value="&lt;span style=&quot;color: rgb(85, 85, 85); font-family: Lato, &amp;quot;PingFang SC&amp;quot;, &amp;quot;Microsoft YaHei&amp;quot;, sans-serif; font-size: 18px; font-style: normal; font-variant-ligatures: normal; font-variant-caps: normal; font-weight: 400; letter-spacing: normal; orphans: 2; text-align: justify; text-indent: 0px; text-transform: none; widows: 2; word-spacing: 0px; -webkit-text-stroke-width: 0px; background-color: rgb(255, 255, 255); text-decoration-thickness: initial; text-decoration-style: initial; text-decoration-color: initial; float: none; display: inline !important;&quot;&gt;token的两个特点吧，一个是存储在前端，另一个就是服务器生成的，它一般不存储在cookie中。&lt;/span&gt;" style="text;whiteSpace=wrap;html=1;fontSize=16;" vertex="1" parent="1">
          <mxGeometry x="-892" y="5107" width="550" height="65" as="geometry" />
        </mxCell>
        <mxCell id="GHWXiHdl8ZBUF20P6Pi2-9" value="&lt;p style=&quot;line-height: inherit; margin-top: 22px; margin-bottom: 22px; color: rgb(37, 41, 51); font-family: -apple-system, system-ui, &amp;quot;Segoe UI&amp;quot;, Roboto, Ubuntu, Cantarell, &amp;quot;Noto Sans&amp;quot;, sans-serif, BlinkMacSystemFont, &amp;quot;Helvetica Neue&amp;quot;, &amp;quot;PingFang SC&amp;quot;, &amp;quot;Hiragino Sans GB&amp;quot;, &amp;quot;Microsoft YaHei&amp;quot;, Arial; font-size: 16px; font-style: normal; font-variant-ligatures: normal; font-variant-caps: normal; font-weight: 400; letter-spacing: normal; orphans: 2; text-align: start; text-indent: 0px; text-transform: none; widows: 2; word-spacing: 0px; -webkit-text-stroke-width: 0px; background-color: rgb(255, 255, 255); text-decoration-thickness: initial; text-decoration-style: initial; text-decoration-color: initial;&quot;&gt;Token 其实就是访问资源对凭证。&lt;/p&gt;&lt;p style=&quot;line-height: inherit; margin-top: 22px; margin-bottom: 22px; color: rgb(37, 41, 51); font-family: -apple-system, system-ui, &amp;quot;Segoe UI&amp;quot;, Roboto, Ubuntu, Cantarell, &amp;quot;Noto Sans&amp;quot;, sans-serif, BlinkMacSystemFont, &amp;quot;Helvetica Neue&amp;quot;, &amp;quot;PingFang SC&amp;quot;, &amp;quot;Hiragino Sans GB&amp;quot;, &amp;quot;Microsoft YaHei&amp;quot;, Arial; font-size: 16px; font-style: normal; font-variant-ligatures: normal; font-variant-caps: normal; font-weight: 400; letter-spacing: normal; orphans: 2; text-align: start; text-indent: 0px; text-transform: none; widows: 2; word-spacing: 0px; -webkit-text-stroke-width: 0px; background-color: rgb(255, 255, 255); text-decoration-thickness: initial; text-decoration-style: initial; text-decoration-color: initial;&quot;&gt;一般是用户通过用户名和密码登录成功之后，服务器将登录凭证做数字签名，加密之后得到的字符串作为token。&lt;/p&gt;" style="text;whiteSpace=wrap;html=1;fontSize=16;" vertex="1" parent="1">
          <mxGeometry x="-899" y="5184" width="550" height="146" as="geometry" />
        </mxCell>
        <mxCell id="GHWXiHdl8ZBUF20P6Pi2-10" value="&lt;div&gt;&lt;p&gt;客户端主要以下几种存储方式：&lt;/p&gt;&lt;ol&gt;&lt;li&gt;存储在localStorage中，每次调用接口的时候都把它当成一个字段传给后台&lt;/li&gt;&lt;br&gt;&lt;li&gt;存储在cookie中，让它自动发送，不过缺点就是不能跨域&lt;/li&gt;&lt;br&gt;&lt;li&gt;拿到之后存储在localStorage中，每次调用接口的时候放在HTTP请求头的Authorization字段里面。&lt;/li&gt;&lt;/ol&gt;&lt;p&gt;token 在客户端一般存放于localStorage、cookie、或sessionStorage中。&lt;/p&gt;&lt;/div&gt;" style="text;whiteSpace=wrap;html=1;fontSize=16;" vertex="1" parent="1">
          <mxGeometry x="-911" y="5326" width="550" height="245" as="geometry" />
        </mxCell>
        <mxCell id="GHWXiHdl8ZBUF20P6Pi2-11" value="&lt;strong style=&quot;font-weight: 700; color: rgb(51, 51, 51); font-family: -apple-system, system-ui, &amp;quot;Segoe UI&amp;quot;, Roboto, Ubuntu, Cantarell, &amp;quot;Noto Sans&amp;quot;, sans-serif, BlinkMacSystemFont, &amp;quot;Helvetica Neue&amp;quot;, &amp;quot;PingFang SC&amp;quot;, &amp;quot;Hiragino Sans GB&amp;quot;, &amp;quot;Microsoft YaHei&amp;quot;, Arial; font-size: 16px; font-style: normal; font-variant-ligatures: normal; font-variant-caps: normal; letter-spacing: normal; orphans: 2; text-align: start; text-indent: 0px; text-transform: none; widows: 2; word-spacing: 0px; -webkit-text-stroke-width: 0px; background-color: rgb(255, 255, 255); text-decoration-thickness: initial; text-decoration-style: initial; text-decoration-color: initial;&quot;&gt;JSON Web Token&lt;/strong&gt;&lt;span style=&quot;color: rgb(51, 51, 51); font-family: -apple-system, system-ui, &amp;quot;Segoe UI&amp;quot;, Roboto, Ubuntu, Cantarell, &amp;quot;Noto Sans&amp;quot;, sans-serif, BlinkMacSystemFont, &amp;quot;Helvetica Neue&amp;quot;, &amp;quot;PingFang SC&amp;quot;, &amp;quot;Hiragino Sans GB&amp;quot;, &amp;quot;Microsoft YaHei&amp;quot;, Arial; font-size: 16px; font-style: normal; font-variant-ligatures: normal; font-variant-caps: normal; font-weight: 400; letter-spacing: normal; orphans: 2; text-align: start; text-indent: 0px; text-transform: none; widows: 2; word-spacing: 0px; -webkit-text-stroke-width: 0px; background-color: rgb(255, 255, 255); text-decoration-thickness: initial; text-decoration-style: initial; text-decoration-color: initial; float: none; display: inline !important;&quot;&gt;（JWT）是一个非常轻巧的规范。这个规范允许我们使用 JWT 在用户和服务器之间传递安全可靠的信息。&lt;/span&gt;" style="text;whiteSpace=wrap;html=1;fontSize=16;" vertex="1" parent="1">
          <mxGeometry x="-936" y="5671" width="550" height="60" as="geometry" />
        </mxCell>
      </root>
    </mxGraphModel>
  </diagram>
</mxfile>
